<?xml version="1.0" encoding="UTF-8"?>
<!DOCTYPE svg PUBLIC "-//W3C//DTD SVG 1.1//EN" "http://www.w3.org/Graphics/SVG/1.1/DTD/svg11.dtd">
<svg xmlns="http://www.w3.org/2000/svg" version="1.1" width="290px" height="308px" style="shape-rendering:geometricPrecision; text-rendering:geometricPrecision; image-rendering:optimizeQuality; fill-rule:evenodd; clip-rule:evenodd" xmlns:xlink="http://www.w3.org/1999/xlink">
<g><path style="opacity:1" fill="#665f5a" d="M 191.5,11.5 C 187.848,10.1857 184.181,10.1857 180.5,11.5C 153.071,3.50622 125.738,3.50622 98.5,11.5C 62.2562,22.8741 37.0895,46.2075 23,81.5C 20.2243,88.6027 18.391,95.9361 17.5,103.5C 15.7118,104.283 14.7118,105.616 14.5,107.5C 14.5,107.833 14.5,108.167 14.5,108.5C 14.7678,110.099 14.4345,111.432 13.5,112.5C 13.8432,110.517 13.1765,109.183 11.5,108.5C 10.9928,104.33 12.6595,101.33 16.5,99.5C 15.9953,98.0815 14.9953,97.4148 13.5,97.5C 27.7625,46.4048 60.7625,14.9048 112.5,3C 139.867,-2.54249 166.201,0.290846 191.5,11.5 Z"/></g>
<g><path style="opacity:1" fill="#b4ada5" d="M 180.5,11.5 C 183.833,12.8333 187.167,14.1667 190.5,15.5C 190.5,16.5 190.5,17.5 190.5,18.5C 189.167,18.5 187.833,18.5 186.5,18.5C 167.901,11.0904 148.568,8.09038 128.5,9.5C 127.508,9.32842 126.842,9.66175 126.5,10.5C 121.07,10.5167 115.737,11.1834 110.5,12.5C 107.985,10.1582 105.485,10.1582 103,12.5C 101.644,11.6198 100.144,11.2865 98.5,11.5C 125.738,3.50622 153.071,3.50622 180.5,11.5 Z"/></g>
<g><path style="opacity:1" fill="#918689" d="M 126.5,10.5 C 126.842,9.66175 127.508,9.32842 128.5,9.5C 138.684,10.2713 149.018,11.1047 159.5,12C 165.392,14.4452 171.392,16.6118 177.5,18.5C 180.649,18.3156 183.649,18.3156 186.5,18.5C 187.833,18.5 189.167,18.5 190.5,18.5C 190.5,17.5 190.5,16.5 190.5,15.5C 194.779,16.9728 198.779,18.9728 202.5,21.5C 203.92,23.9017 205.253,26.4017 206.5,29C 206.167,29.1667 205.833,29.3333 205.5,29.5C 200.276,25.5545 194.609,22.7212 188.5,21C 189.126,21.7504 189.626,22.5838 190,23.5C 194.968,23.816 198.635,26.1493 201,30.5C 202.507,29.4652 204.007,29.6319 205.5,31C 206.928,33.1847 208.595,35.1847 210.5,37C 213.611,37.444 216.277,38.7773 218.5,41C 224.033,47.3628 229.699,53.5295 235.5,59.5C 242.776,72.0623 248.442,85.3956 252.5,99.5C 252.392,100.442 252.059,101.275 251.5,102C 247.705,103.755 243.872,104.255 240,103.5C 235.106,91.3715 228.939,80.0382 221.5,69.5C 222.978,69.762 224.311,69.4287 225.5,68.5C 224.237,65.3972 222.737,62.3972 221,59.5C 215.685,54.0186 210.185,48.6853 204.5,43.5C 206.06,41.8706 205.727,40.704 203.5,40C 204.833,38.6667 204.833,37.3333 203.5,36C 204.167,35.6667 204.833,35.3333 205.5,35C 202.673,34.4699 199.673,33.4699 196.5,32C 194.477,29.3758 191.977,28.5425 189,29.5C 185.863,25.2778 181.863,23.6111 177,24.5C 176.255,21.2132 174.422,20.2132 171.5,21.5C 166.547,19.2374 161.547,17.0707 156.5,15C 156.833,14.6667 157.167,14.3333 157.5,14C 151.081,13.6748 144.748,12.8415 138.5,11.5C 129.639,13.7981 120.639,15.2981 111.5,16C 109.17,17.5234 106.836,18.0234 104.5,17.5C 100.14,19.9683 95.4733,21.3016 90.5,21.5C 94.1865,19.2051 98.1865,17.3718 102.5,16C 111.075,15.2946 119.408,13.628 127.5,11C 127.272,10.6012 126.938,10.4346 126.5,10.5 Z"/></g>
<g><path style="opacity:1" fill="#665c5f" d="M 128.5,9.5 C 148.568,8.09038 167.901,11.0904 186.5,18.5C 183.649,18.3156 180.649,18.3156 177.5,18.5C 171.392,16.6118 165.392,14.4452 159.5,12C 149.018,11.1047 138.684,10.2713 128.5,9.5 Z"/></g>
<g><path style="opacity:1" fill="#c6bdbb" d="M 204.5,43.5 C 210.185,48.6853 215.685,54.0186 221,59.5C 222.737,62.3972 224.237,65.3972 225.5,68.5C 224.311,69.4287 222.978,69.762 221.5,69.5C 214.809,61.6631 207.142,54.9964 198.5,49.5C 189.935,42.3797 180.269,37.0464 169.5,33.5C 153.596,27.821 137.263,26.1543 120.5,28.5C 120.345,23.9774 122.345,20.8107 126.5,19C 155.887,16.8535 181.887,25.0202 204.5,43.5 Z"/></g>
<g><path style="opacity:1" fill="#6f6567" d="M 126.5,10.5 C 126.938,10.4346 127.272,10.6012 127.5,11C 119.408,13.628 111.075,15.2946 102.5,16C 98.1865,17.3718 94.1865,19.2051 90.5,21.5C 88.5486,23.5896 86.2153,25.4229 83.5,27C 79.4155,27.981 75.4155,29.1477 71.5,30.5C 83.2402,22.1351 96.2402,16.1351 110.5,12.5C 115.737,11.1834 121.07,10.5167 126.5,10.5 Z"/></g>
<g><path style="opacity:1" fill="#8d807d" d="M 169.5,33.5 C 180.269,37.0464 189.935,42.3797 198.5,49.5C 188.46,44.148 178.127,39.3147 167.5,35C 168.416,34.7216 169.082,34.2216 169.5,33.5 Z"/></g>
<g><path style="opacity:1" fill="#96898c" d="M 204.5,43.5 C 181.887,25.0202 155.887,16.8535 126.5,19C 122.345,20.8107 120.345,23.9774 120.5,28.5C 77.7848,37.879 49.1181,63.2123 34.5,104.5C 29.8562,105.676 25.8562,104.509 22.5,101C 25.3484,91.6184 28.6817,82.4518 32.5,73.5C 35.2665,65.7492 39.5999,59.0825 45.5,53.5C 51.1186,48.5481 56.4519,43.2148 61.5,37.5C 64.1251,34.1848 67.4584,31.8514 71.5,30.5C 75.4155,29.1477 79.4155,27.981 83.5,27C 86.2153,25.4229 88.5486,23.5896 90.5,21.5C 95.4733,21.3016 100.14,19.9683 104.5,17.5C 106.836,18.0234 109.17,17.5234 111.5,16C 120.639,15.2981 129.639,13.7981 138.5,11.5C 144.748,12.8415 151.081,13.6748 157.5,14C 157.167,14.3333 156.833,14.6667 156.5,15C 161.547,17.0707 166.547,19.2374 171.5,21.5C 174.422,20.2132 176.255,21.2132 177,24.5C 181.863,23.6111 185.863,25.2778 189,29.5C 191.977,28.5425 194.477,29.3758 196.5,32C 199.673,33.4699 202.673,34.4699 205.5,35C 204.833,35.3333 204.167,35.6667 203.5,36C 204.833,37.3333 204.833,38.6667 203.5,40C 205.727,40.704 206.06,41.8706 204.5,43.5 Z"/></g>
<g><path style="opacity:1" fill="#c7c0b2" d="M 110.5,12.5 C 96.2402,16.1351 83.2402,22.1351 71.5,30.5C 67.4584,31.8514 64.1251,34.1848 61.5,37.5C 55.1878,41.8122 49.8545,47.1455 45.5,53.5C 39.5999,59.0825 35.2665,65.7492 32.5,73.5C 30.5259,75.428 29.0259,77.7613 28,80.5C 25.1582,88.361 22.3249,96.1944 19.5,104C 24.2316,105.466 28.8982,107.133 33.5,109C 27.1466,109.022 20.8132,108.522 14.5,107.5C 14.7118,105.616 15.7118,104.283 17.5,103.5C 18.391,95.9361 20.2243,88.6027 23,81.5C 37.0895,46.2075 62.2562,22.8741 98.5,11.5C 100.144,11.2865 101.644,11.6198 103,12.5C 105.485,10.1582 107.985,10.1582 110.5,12.5 Z"/></g>
<g><path style="opacity:1" fill="#4b4342" d="M 61.5,37.5 C 56.4519,43.2148 51.1186,48.5481 45.5,53.5C 49.8545,47.1455 55.1878,41.8122 61.5,37.5 Z"/></g>
<g><path style="opacity:1" fill="#4c403e" d="M 180.5,11.5 C 184.181,10.1857 187.848,10.1857 191.5,11.5C 229.595,28.2699 253.595,56.9365 263.5,97.5C 263.5,98.1667 263.167,98.5 262.5,98.5C 262.167,98.5 261.833,98.5 261.5,98.5C 252.709,64.3905 233.042,38.7239 202.5,21.5C 198.779,18.9728 194.779,16.9728 190.5,15.5C 187.167,14.1667 183.833,12.8333 180.5,11.5 Z"/></g>
<g><path style="opacity:1" fill="#787274" d="M 202.5,21.5 C 233.042,38.7239 252.709,64.3905 261.5,98.5C 261.361,103.39 259.861,103.723 257,99.5C 252.144,84.7804 244.978,71.4471 235.5,59.5C 229.699,53.5295 224.033,47.3628 218.5,41C 216.277,38.7773 213.611,37.444 210.5,37C 208.595,35.1847 206.928,33.1847 205.5,31C 204.007,29.6319 202.507,29.4652 201,30.5C 198.635,26.1493 194.968,23.816 190,23.5C 189.626,22.5838 189.126,21.7504 188.5,21C 194.609,22.7212 200.276,25.5545 205.5,29.5C 205.833,29.3333 206.167,29.1667 206.5,29C 205.253,26.4017 203.92,23.9017 202.5,21.5 Z"/></g>
<g><path style="opacity:1" fill="#5c5354" d="M 169.5,33.5 C 169.082,34.2216 168.416,34.7216 167.5,35C 178.127,39.3147 188.46,44.148 198.5,49.5C 207.142,54.9964 214.809,61.6631 221.5,69.5C 228.939,80.0382 235.106,91.3715 240,103.5C 243.872,104.255 247.705,103.755 251.5,102C 252.059,101.275 252.392,100.442 252.5,99.5C 248.442,85.3956 242.776,72.0623 235.5,59.5C 244.978,71.4471 252.144,84.7804 257,99.5C 259.861,103.723 261.361,103.39 261.5,98.5C 261.833,98.5 262.167,98.5 262.5,98.5C 264.972,100.5 267.138,102.833 269,105.5C 270.763,111.401 271.429,117.401 271,123.5C 267.032,126.902 262.532,129.402 257.5,131C 256.62,132.356 256.286,133.856 256.5,135.5C 255.883,135.611 255.383,135.944 255,136.5C 254.374,142.195 254.541,147.862 255.5,153.5C 254.728,152.306 253.728,151.306 252.5,150.5C 251.549,149.081 251.216,147.415 251.5,145.5C 250.486,144.326 249.153,143.66 247.5,143.5C 247.703,141.956 248.37,140.622 249.5,139.5C 248.418,139.251 247.085,139.085 245.5,139C 244.663,137.989 244.33,136.822 244.5,135.5C 246.5,135.5 248.5,135.5 250.5,135.5C 250.5,134.5 250.5,133.5 250.5,132.5C 247.881,132.768 245.381,132.435 243,131.5C 242.106,123.375 240.439,115.375 238,107.5C 233.619,99.1247 228.452,91.2913 222.5,84C 223.332,83.3123 223.998,83.479 224.5,84.5C 226.473,87.6397 228.64,90.6397 231,93.5C 231.167,93.1667 231.333,92.8333 231.5,92.5C 227,85.5 222.5,78.5 218,71.5C 211.5,65.6667 205,59.8333 198.5,54C 183.525,45.4526 167.858,38.4526 151.5,33C 113.658,29.0087 82.4916,41.5087 58,70.5C 54.1661,75.497 50.8328,80.8303 48,86.5C 47.3333,88.1667 47.3333,89.8333 48,91.5C 48.3768,90.0577 49.2101,89.0577 50.5,88.5C 47.0244,94.779 43.5244,101.112 40,107.5C 38.0244,113.387 37.0244,119.387 37,125.5C 37.3826,124.944 37.8826,124.611 38.5,124.5C 40.1053,123.031 40.6053,123.365 40,125.5C 38.9609,126.71 37.7942,127.71 36.5,128.5C 34.5351,130.488 32.2018,131.988 29.5,133C 31.0614,133.941 32.3947,135.108 33.5,136.5C 32.6798,138.111 31.3464,138.778 29.5,138.5C 29.4527,144.194 31.4527,149.027 35.5,153C 34.8333,153.333 34.1667,153.667 33.5,154C 34.3805,154.708 35.0472,155.542 35.5,156.5C 31.6908,156.466 29.8575,154.466 30,150.5C 29.5034,152.81 29.3367,155.143 29.5,157.5C 28.5,157.5 27.5,157.5 26.5,157.5C 26.665,154.15 26.4983,150.817 26,147.5C 25.8078,149.577 25.3078,151.577 24.5,153.5C 24.2577,149.92 24.091,146.253 24,142.5C 23.7679,143.737 23.2679,144.737 22.5,145.5C 23.0508,142.193 23.3841,138.86 23.5,135.5C 23.5,133.833 23.5,132.167 23.5,130.5C 18.6893,130.173 14.1893,128.84 10,126.5C 9.77401,120.455 10.274,114.455 11.5,108.5C 13.1765,109.183 13.8432,110.517 13.5,112.5C 9.90545,123.08 13.7388,128.08 25,127.5C 26.7642,127.456 28.4309,127.122 30,126.5C 30.4181,122.822 30.9181,119.155 31.5,115.5C 31.1667,114.5 30.8333,113.5 30.5,112.5C 25.1581,111.165 19.8248,109.831 14.5,108.5C 14.5,108.167 14.5,107.833 14.5,107.5C 20.8132,108.522 27.1466,109.022 33.5,109C 28.8982,107.133 24.2316,105.466 19.5,104C 22.3249,96.1944 25.1582,88.361 28,80.5C 29.0259,77.7613 30.5259,75.428 32.5,73.5C 28.6817,82.4518 25.3484,91.6184 22.5,101C 25.8562,104.509 29.8562,105.676 34.5,104.5C 49.1181,63.2123 77.7848,37.879 120.5,28.5C 137.263,26.1543 153.596,27.821 169.5,33.5 Z"/></g>
<g><path style="opacity:1" fill="#bd8750" d="M 54.5,109.5 C 52.0905,110.701 50.0905,112.367 48.5,114.5C 45.5505,116.115 42.8838,118.115 40.5,120.5C 42.2018,111.77 45.5351,103.77 50.5,96.5C 51.4584,96.0472 52.2917,95.3805 53,94.5C 54.0498,99.4482 54.5498,104.448 54.5,109.5 Z"/></g>
<g><path style="opacity:1" fill="#a89d9d" d="M 256.5,104.5 C 258.199,104.34 259.866,104.506 261.5,105C 255.26,107.417 248.927,108.584 242.5,108.5C 247.233,107.074 251.899,105.741 256.5,104.5 Z"/></g>
<g><path style="opacity:1" fill="#d3a68d" d="M 75.5,99.5 C 73.2388,102.796 70.2388,104.796 66.5,105.5C 68.9754,102.759 71.9754,100.759 75.5,99.5 Z"/></g>
<g><path style="opacity:1" fill="#6e483a" d="M 165.5,91.5 C 164.833,98.1667 164.167,104.833 163.5,111.5C 165.262,111.357 166.929,111.691 168.5,112.5C 169.33,106.862 169.83,101.196 170,95.5C 170.667,96.8333 171.667,97.8333 173,98.5C 173.172,103.202 173.672,107.868 174.5,112.5C 174.833,112.167 175.167,111.833 175.5,111.5C 176.128,105.522 176.794,99.5221 177.5,93.5C 178.663,99.1375 178.83,104.804 178,110.5C 177.52,112.133 176.687,113.466 175.5,114.5C 165.562,113.063 155.562,112.063 145.5,111.5C 134.453,112.256 123.453,113.423 112.5,115C 115.146,115.497 117.813,115.664 120.5,115.5C 120.5,115.833 120.5,116.167 120.5,116.5C 109.133,118.622 98.1332,121.956 87.5,126.5C 84.9684,127.596 82.6351,128.929 80.5,130.5C 75.2783,133.38 70.6117,137.047 66.5,141.5C 63.0804,143.222 59.4137,143.889 55.5,143.5C 56.6086,141.446 57.6086,139.279 58.5,137C 57.548,135.7 57.548,134.533 58.5,133.5C 61.1029,132.438 63.7695,132.272 66.5,133C 67.9956,135.972 69.3289,135.638 70.5,132C 70.1667,131.667 69.8333,131.333 69.5,131C 73.3349,129.253 76.0016,126.419 77.5,122.5C 82.8255,119.635 88.1588,119.302 93.5,121.5C 94.1186,117.857 96.1186,116.857 99.5,118.5C 103.184,117.132 106.851,115.799 110.5,114.5C 110.5,113.5 110.5,112.5 110.5,111.5C 116.64,113.072 122.64,112.572 128.5,110C 127.973,107.525 127.973,105.191 128.5,103C 130.119,102.764 131.119,101.931 131.5,100.5C 131.841,97.4842 133.007,94.8175 135,92.5C 136.37,95.05 137.537,97.7167 138.5,100.5C 139.614,101.776 140.614,101.776 141.5,100.5C 142.065,98.6136 143.065,96.9469 144.5,95.5C 145.795,98.0119 146.461,100.679 146.5,103.5C 147.791,103.737 148.791,103.404 149.5,102.5C 150.719,99.7092 152.052,96.8759 153.5,94C 154.167,93.3333 154.833,93.3333 155.5,94C 156.211,95.2547 157.044,96.4214 158,97.5C 159.908,94.7935 160.741,91.7935 160.5,88.5C 162.933,88.2729 164.599,89.2729 165.5,91.5 Z"/></g>
<g><path style="opacity:1" fill="#a45c42" d="M 68.5,75.5 C 69.1144,80.1347 67.9477,84.1347 65,87.5C 64.3333,91.5 64.3333,95.5 65,99.5C 66.9935,98.086 69.1602,97.086 71.5,96.5C 70.6935,97.7281 69.6935,98.7281 68.5,99.5C 65.8614,101.156 63.1947,102.822 60.5,104.5C 62.7275,97.3681 64.0608,90.0347 64.5,82.5C 65.0787,79.6689 66.412,77.3356 68.5,75.5 Z"/></g>
<g><path style="opacity:1" fill="#5a5860" d="M 79.5,96.5 C 77.7697,97.0256 76.4363,98.0256 75.5,99.5C 71.9754,100.759 68.9754,102.759 66.5,105.5C 66.0269,106.906 65.0269,107.573 63.5,107.5C 58.3138,109.685 53.6471,112.685 49.5,116.5C 48.6618,116.158 48.3284,115.492 48.5,114.5C 50.0905,112.367 52.0905,110.701 54.5,109.5C 55.3382,109.158 55.6716,108.492 55.5,107.5C 57.4113,106.925 59.078,105.925 60.5,104.5C 63.1947,102.822 65.8614,101.156 68.5,99.5C 71.8515,98.9916 74.8515,97.6582 77.5,95.5C 78.4164,95.5427 79.0831,95.8761 79.5,96.5 Z"/></g>
<g><path style="opacity:1" fill="#e17151" d="M 105.5,90.5 C 105.5,94.1667 105.5,97.8333 105.5,101.5C 102.833,101.833 100.167,102.167 97.5,102.5C 97.81,99.2869 97.4767,96.2869 96.5,93.5C 97.1667,92.8333 97.8333,92.1667 98.5,91.5C 100.861,91.3259 103.194,90.9926 105.5,90.5 Z"/></g>
<g><path style="opacity:1" fill="#f2efeb" d="M 50.5,96.5 C 45.5351,103.77 42.2018,111.77 40.5,120.5C 39.3995,121.605 38.7329,122.938 38.5,124.5C 37.8826,124.611 37.3826,124.944 37,125.5C 37.0244,119.387 38.0244,113.387 40,107.5C 43.5244,101.112 47.0244,94.779 50.5,88.5C 51.9063,88.0269 52.573,87.0269 52.5,85.5C 55.1009,82.3957 57.9343,79.3957 61,76.5C 61.1667,76.8333 61.3333,77.1667 61.5,77.5C 57.5573,83.7247 53.8907,90.058 50.5,96.5 Z"/></g>
<g><path style="opacity:1" fill="#e67451" d="M 96.5,93.5 C 96.5,99.8333 96.5,106.167 96.5,112.5C 95.5,112.5 94.5,112.5 93.5,112.5C 92.2342,107.199 91.0675,101.866 90,96.5C 89.1691,102.477 88.6691,108.477 88.5,114.5C 86.0901,114.079 84.2568,112.746 83,110.5C 82.7725,106.083 82.2725,101.75 81.5,97.5C 84.2154,95.9281 87.2154,94.9281 90.5,94.5C 92.5,94.1667 94.5,93.8333 96.5,93.5 Z"/></g>
<g><path style="opacity:1" fill="#c7b9ac" d="M 90.5,94.5 C 87.2154,94.9281 84.2154,95.9281 81.5,97.5C 80.5084,97.3284 79.8417,97.6618 79.5,98.5C 78.1667,98.8333 76.8333,99.1667 75.5,99.5C 76.4363,98.0256 77.7697,97.0256 79.5,96.5C 83.6605,94.5439 87.9938,93.3772 92.5,93C 91.5842,93.2784 90.9175,93.7784 90.5,94.5 Z"/></g>
<g><path style="opacity:1" fill="#d77b59" d="M 64.5,82.5 C 64.0608,90.0347 62.7275,97.3681 60.5,104.5C 59.078,105.925 57.4113,106.925 55.5,107.5C 55.1712,101.794 55.5046,96.1278 56.5,90.5C 59.5483,88.1185 62.2149,85.4518 64.5,82.5 Z"/></g>
<g><path style="opacity:1" fill="#7b4839" d="M 178.5,87.5 C 186.659,89.547 194.326,92.547 201.5,96.5C 194.357,94.6301 187.357,92.2967 180.5,89.5C 180.167,89.8333 179.833,90.1667 179.5,90.5C 182.207,91.9043 184.874,93.2376 187.5,94.5C 187.5,98.8333 187.5,103.167 187.5,107.5C 187.216,110.777 187.549,113.943 188.5,117C 186.155,117.17 183.821,116.837 181.5,116C 182.333,115.167 183.167,114.333 184,113.5C 184.83,107.804 184.663,102.137 183.5,96.5C 182.575,97.6405 181.741,97.6405 181,96.5C 181.131,103.246 180.298,109.579 178.5,115.5C 177.209,115.737 176.209,115.404 175.5,114.5C 176.687,113.466 177.52,112.133 178,110.5C 178.83,104.804 178.663,99.1375 177.5,93.5C 176.794,99.5221 176.128,105.522 175.5,111.5C 175.167,111.833 174.833,112.167 174.5,112.5C 173.672,107.868 173.172,103.202 173,98.5C 171.667,97.8333 170.667,96.8333 170,95.5C 169.83,101.196 169.33,106.862 168.5,112.5C 166.929,111.691 165.262,111.357 163.5,111.5C 164.167,104.833 164.833,98.1667 165.5,91.5C 169.842,91.7395 174.176,92.0728 178.5,92.5C 178.5,90.8333 178.5,89.1667 178.5,87.5 Z"/></g>
<g><path style="opacity:1" fill="#9d5341" d="M 149.5,102.5 C 148.791,103.404 147.791,103.737 146.5,103.5C 146.461,100.679 145.795,98.0119 144.5,95.5C 143.065,96.9469 142.065,98.6136 141.5,100.5C 139.266,95.3637 138.933,90.0304 140.5,84.5C 142.5,84.5 144.5,84.5 146.5,84.5C 146.334,89.1785 146.501,93.8452 147,98.5C 147.122,100.437 147.955,101.77 149.5,102.5 Z"/></g>
<g><path style="opacity:1" fill="#6d4336" d="M 173.5,46.5 C 180.236,48.3727 186.57,51.0394 192.5,54.5C 195.144,56.969 197.977,59.3024 201,61.5C 203.908,66.4134 207.575,70.7467 212,74.5C 215.772,80.4909 218.772,86.8242 221,93.5C 221.483,92.552 221.649,91.552 221.5,90.5C 222.482,94.3164 223.149,98.3164 223.5,102.5C 225.406,108.685 224.073,109.685 219.5,105.5C 219.167,106.167 218.833,106.833 218.5,107.5C 216.544,106.452 214.544,105.952 212.5,106C 214.569,107.523 216.903,108.357 219.5,108.5C 219.592,114.752 218.925,120.919 217.5,127C 217.833,128.5 218.167,130 218.5,131.5C 219.086,131.291 219.586,130.957 220,130.5C 221.107,124.131 221.44,117.798 221,111.5C 222,112.167 223,112.833 224,113.5C 224.167,116 224.333,118.5 224.5,121C 223.308,127.408 222.475,133.908 222,140.5C 221.617,139.944 221.117,139.611 220.5,139.5C 218.167,137.833 216.167,135.833 214.5,133.5C 212.894,125.637 212.06,117.637 212,109.5C 208.984,107.712 206.484,105.379 204.5,102.5C 202.914,125.085 201.247,125.085 199.5,102.5C 198.476,101.147 197.143,100.48 195.5,100.5C 195.5,106.833 195.5,113.167 195.5,119.5C 193.335,119.884 191.668,119.217 190.5,117.5C 191.626,111.218 191.793,104.885 191,98.5C 190.586,98.0426 190.086,97.7093 189.5,97.5C 188.833,100.977 188.166,104.311 187.5,107.5C 187.5,103.167 187.5,98.8333 187.5,94.5C 184.874,93.2376 182.207,91.9043 179.5,90.5C 179.833,90.1667 180.167,89.8333 180.5,89.5C 187.357,92.2967 194.357,94.6301 201.5,96.5C 205.522,97.3434 209.188,99.0101 212.5,101.5C 212.833,101.167 213.167,100.833 213.5,100.5C 206.374,95.7125 200.708,89.7125 196.5,82.5C 199.827,85.1458 200.994,84.1458 200,79.5C 194.171,72.6712 188.004,66.1712 181.5,60C 183.92,60.0245 186.253,60.6912 188.5,62C 191.66,66.4929 195.493,70.3263 200,73.5C 200.52,71.7111 200.187,70.0444 199,68.5C 191.698,60.8589 183.531,54.3589 174.5,49C 173.748,48.3292 173.414,47.4959 173.5,46.5 Z"/></g>
<g><path style="opacity:1" fill="#e27351" d="M 86.5,59.5 C 87.8734,59.3433 89.2068,59.51 90.5,60C 87.0115,64.8071 84.5115,69.9738 83,75.5C 85.5877,71.326 87.921,66.9926 90,62.5C 92.0344,61.1379 94.2011,60.1379 96.5,59.5C 96.0231,62.655 95.0231,65.655 93.5,68.5C 91.716,69.5738 90.5494,71.2404 90,73.5C 88.1847,78.7635 86.6847,84.0968 85.5,89.5C 83.2685,91.201 80.7685,92.5343 78,93.5C 77.6667,92.8333 77.3333,92.1667 77,91.5C 75.9243,94.079 74.091,95.7457 71.5,96.5C 69.1602,97.086 66.9935,98.086 65,99.5C 64.3333,95.5 64.3333,91.5 65,87.5C 67.9477,84.1347 69.1144,80.1347 68.5,75.5C 71.8531,69.3099 76.8531,65.1433 83.5,63C 84.7101,61.9609 85.7101,60.7942 86.5,59.5 Z"/></g>
<g><path style="opacity:1" fill="#5f4338" d="M 196.5,82.5 C 200.708,89.7125 206.374,95.7125 213.5,100.5C 213.167,100.833 212.833,101.167 212.5,101.5C 209.188,99.0101 205.522,97.3434 201.5,96.5C 194.326,92.547 186.659,89.547 178.5,87.5C 164.059,84.0633 149.393,82.73 134.5,83.5C 131.695,82.6805 128.695,82.1805 125.5,82C 127.175,81.0147 128.842,80.1814 130.5,79.5C 132.045,78.7703 132.878,77.437 133,75.5C 133.483,76.448 133.649,77.448 133.5,78.5C 136.167,78.5 138.833,78.5 141.5,78.5C 147.878,78.2946 154.211,78.6279 160.5,79.5C 166.679,81.0468 173.013,82.5468 179.5,84C 183.846,87.1209 188.679,89.2876 194,90.5C 195.28,90.3865 196.113,89.7199 196.5,88.5C 189.781,81.39 182.948,74.39 176,67.5C 172.833,63.1667 169.667,58.8333 166.5,54.5C 167,54.1667 167.5,53.8333 168,53.5C 171.138,56.4366 173.805,59.77 176,63.5C 176.5,63 177,62.5 177.5,62C 175.993,61.1627 175.493,59.9961 176,58.5C 177.333,59.8333 178.667,61.1667 180,62.5C 185.391,69.3787 190.891,76.0454 196.5,82.5 Z"/></g>
<g><path style="opacity:1" fill="#ca6147" d="M 134.5,83.5 C 149.393,82.73 164.059,84.0633 178.5,87.5C 178.5,89.1667 178.5,90.8333 178.5,92.5C 174.176,92.0728 169.842,91.7395 165.5,91.5C 164.599,89.2729 162.933,88.2729 160.5,88.5C 160.741,91.7935 159.908,94.7935 158,97.5C 157.044,96.4214 156.211,95.2547 155.5,94C 154.833,93.3333 154.167,93.3333 153.5,94C 152.052,96.8759 150.719,99.7092 149.5,102.5C 147.955,101.77 147.122,100.437 147,98.5C 146.501,93.8452 146.334,89.1785 146.5,84.5C 144.5,84.5 142.5,84.5 140.5,84.5C 138.933,90.0304 139.266,95.3637 141.5,100.5C 140.614,101.776 139.614,101.776 138.5,100.5C 137.537,97.7167 136.37,95.05 135,92.5C 133.007,94.8175 131.841,97.4842 131.5,100.5C 130.883,100.611 130.383,100.944 130,101.5C 125.298,96.7292 124.465,91.3959 127.5,85.5C 130.044,85.1043 132.211,85.771 134,87.5C 134.49,86.2068 134.657,84.8734 134.5,83.5 Z"/></g>
<g><path style="opacity:1" fill="#6a594d" d="M 115.5,76.5 C 115.5,77.8333 115.5,79.1667 115.5,80.5C 120.482,79.9466 125.482,79.6133 130.5,79.5C 128.842,80.1814 127.175,81.0147 125.5,82C 128.695,82.1805 131.695,82.6805 134.5,83.5C 134.657,84.8734 134.49,86.2068 134,87.5C 132.211,85.771 130.044,85.1043 127.5,85.5C 129.292,84.6909 131.292,84.1909 133.5,84C 130.5,83.3333 127.5,83.3333 124.5,84C 121.445,84.04 119.445,84.8733 118.5,86.5C 118.5,86.8333 118.5,87.1667 118.5,87.5C 117.833,87.5 117.167,87.5 116.5,87.5C 115.5,87.5 114.5,87.5 113.5,87.5C 113.38,86.4138 112.713,85.7472 111.5,85.5C 106.057,87.027 100.724,88.8603 95.5,91C 96.448,91.4828 97.448,91.6495 98.5,91.5C 97.8333,92.1667 97.1667,92.8333 96.5,93.5C 94.5,93.8333 92.5,94.1667 90.5,94.5C 90.9175,93.7784 91.5842,93.2784 92.5,93C 87.9938,93.3772 83.6605,94.5439 79.5,96.5C 79.0831,95.8761 78.4164,95.5427 77.5,95.5C 74.8515,97.6582 71.8515,98.9916 68.5,99.5C 69.6935,98.7281 70.6935,97.7281 71.5,96.5C 74.091,95.7457 75.9243,94.079 77,91.5C 77.3333,92.1667 77.6667,92.8333 78,93.5C 80.7685,92.5343 83.2685,91.201 85.5,89.5C 86.791,89.7373 87.791,89.404 88.5,88.5C 90.4214,87.6373 92.4214,86.9707 94.5,86.5C 94.8333,86.5 95.1667,86.5 95.5,86.5C 97.7028,86.3964 99.7028,85.7298 101.5,84.5C 103.911,84.8633 105.411,83.8633 106,81.5C 107.943,82.807 109.777,82.807 111.5,81.5C 113.534,80.4093 114.868,78.7426 115.5,76.5 Z"/></g>
<g><path style="opacity:1" fill="#55453e" d="M 147.5,34.5 C 142.637,34.1805 137.97,34.5139 133.5,35.5C 131.958,36.3007 130.292,36.634 128.5,36.5C 123.471,36.9205 118.805,38.2538 114.5,40.5C 113.209,40.2627 112.209,40.596 111.5,41.5C 105.839,42.9947 101.172,45.9947 97.5,50.5C 92.3888,53.1053 87.3888,55.9387 82.5,59C 83.7932,59.49 85.1266,59.6567 86.5,59.5C 85.7101,60.7942 84.7101,61.9609 83.5,63C 76.8531,65.1433 71.8531,69.3099 68.5,75.5C 66.412,77.3356 65.0787,79.6689 64.5,82.5C 62.2149,85.4518 59.5483,88.1185 56.5,90.5C 55.5046,96.1278 55.1712,101.794 55.5,107.5C 55.6716,108.492 55.3382,109.158 54.5,109.5C 54.5498,104.448 54.0498,99.4482 53,94.5C 52.2917,95.3805 51.4584,96.0472 50.5,96.5C 53.8907,90.058 57.5573,83.7247 61.5,77.5C 61.3333,77.1667 61.1667,76.8333 61,76.5C 57.9343,79.3957 55.1009,82.3957 52.5,85.5C 55.6645,76.8196 60.9978,69.6529 68.5,64C 80.6681,56.4148 93.0015,49.0815 105.5,42C 118.832,34.9241 132.832,32.4241 147.5,34.5 Z"/></g>
<g><path style="opacity:1" fill="#3c393e" d="M 192.5,54.5 C 195.516,55.3431 198.183,56.8431 200.5,59C 206.333,64.8333 212.167,70.6667 218,76.5C 220.653,80.8027 221.82,85.4694 221.5,90.5C 221.649,91.552 221.483,92.552 221,93.5C 218.772,86.8242 215.772,80.4909 212,74.5C 207.575,70.7467 203.908,66.4134 201,61.5C 197.977,59.3024 195.144,56.969 192.5,54.5 Z"/></g>
<g><path style="opacity:1" fill="#e7e5e3" d="M 247.5,143.5 C 246.461,145.901 245.127,148.235 243.5,150.5C 242.702,150.043 242.369,149.376 242.5,148.5C 243.166,134.326 238.166,122.493 227.5,113C 227.957,112.586 228.291,112.086 228.5,111.5C 227.059,108.276 225.392,105.276 223.5,102.5C 223.149,98.3164 222.482,94.3164 221.5,90.5C 221.82,85.4694 220.653,80.8027 218,76.5C 212.167,70.6667 206.333,64.8333 200.5,59C 198.183,56.8431 195.516,55.3431 192.5,54.5C 186.57,51.0394 180.236,48.3727 173.5,46.5C 171.5,44.0284 169.167,41.8617 166.5,40C 160.384,37.388 154.051,35.5547 147.5,34.5C 132.832,32.4241 118.832,34.9241 105.5,42C 93.0015,49.0815 80.6681,56.4148 68.5,64C 60.9978,69.6529 55.6645,76.8196 52.5,85.5C 51.0937,85.9731 50.427,86.9731 50.5,88.5C 49.2101,89.0577 48.3768,90.0577 48,91.5C 47.3333,89.8333 47.3333,88.1667 48,86.5C 50.8328,80.8303 54.1661,75.497 58,70.5C 82.4916,41.5087 113.658,29.0087 151.5,33C 167.858,38.4526 183.525,45.4526 198.5,54C 205,59.8333 211.5,65.6667 218,71.5C 222.5,78.5 227,85.5 231.5,92.5C 231.333,92.8333 231.167,93.1667 231,93.5C 228.64,90.6397 226.473,87.6397 224.5,84.5C 223.998,83.479 223.332,83.3123 222.5,84C 228.452,91.2913 233.619,99.1247 238,107.5C 240.439,115.375 242.106,123.375 243,131.5C 245.381,132.435 247.881,132.768 250.5,132.5C 250.5,133.5 250.5,134.5 250.5,135.5C 248.5,135.5 246.5,135.5 244.5,135.5C 244.33,136.822 244.663,137.989 245.5,139C 247.085,139.085 248.418,139.251 249.5,139.5C 248.37,140.622 247.703,141.956 247.5,143.5 Z"/></g>
<g><path style="opacity:1" fill="#a38c77" d="M 113.5,87.5 C 110.169,87.0181 107.503,88.0181 105.5,90.5C 103.194,90.9926 100.861,91.3259 98.5,91.5C 97.448,91.6495 96.448,91.4828 95.5,91C 100.724,88.8603 106.057,87.027 111.5,85.5C 112.713,85.7472 113.38,86.4138 113.5,87.5 Z"/></g>
<g><path style="opacity:1" fill="#444242" d="M 52.5,85.5 C 52.573,87.0269 51.9063,88.0269 50.5,88.5C 50.427,86.9731 51.0937,85.9731 52.5,85.5 Z"/></g>
<g><path style="opacity:1" fill="#c5b4a7" d="M 127.5,85.5 C 124.455,85.5079 121.455,85.8413 118.5,86.5C 119.445,84.8733 121.445,84.04 124.5,84C 127.5,83.3333 130.5,83.3333 133.5,84C 131.292,84.1909 129.292,84.6909 127.5,85.5 Z"/></g>
<g><path style="opacity:1" fill="#e26e4d" d="M 103.5,54.5 C 105,58.4555 103.667,61.2889 99.5,63C 100.591,65.0639 100.758,67.2305 100,69.5C 97.2705,74.8556 95.4372,80.5223 94.5,86.5C 92.4214,86.9707 90.4214,87.6373 88.5,88.5C 87.4176,86.6728 87.4176,84.6728 88.5,82.5C 89.7782,77.6634 91.4449,72.9967 93.5,68.5C 96.4112,63.5798 99.7445,58.9131 103.5,54.5 Z"/></g>
<g><path style="opacity:1" fill="#ea724e" d="M 101.5,84.5 C 99.7028,85.7298 97.7028,86.3964 95.5,86.5C 96.4884,80.8661 98.8217,75.8661 102.5,71.5C 103.881,71.9996 104.547,72.9996 104.5,74.5C 103.188,77.7488 102.188,81.0821 101.5,84.5 Z"/></g>
<g><path style="opacity:1" fill="#904f3b" d="M 93.5,68.5 C 91.4449,72.9967 89.7782,77.6634 88.5,82.5C 87.4176,84.6728 87.4176,86.6728 88.5,88.5C 87.791,89.404 86.791,89.7373 85.5,89.5C 86.6847,84.0968 88.1847,78.7635 90,73.5C 90.5494,71.2404 91.716,69.5738 93.5,68.5 Z"/></g>
<g><path style="opacity:1" fill="#cc6c4d" d="M 128.5,36.5 C 127.791,37.404 126.791,37.7373 125.5,37.5C 125.336,43.1667 125.003,43.5 124.5,38.5C 123.178,38.33 122.011,38.6634 121,39.5C 118.225,51.264 114.225,62.5974 109,73.5C 107.921,76.0627 107.421,78.7294 107.5,81.5C 108.833,81.5 110.167,81.5 111.5,81.5C 109.777,82.807 107.943,82.807 106,81.5C 105.411,83.8633 103.911,84.8633 101.5,84.5C 102.188,81.0821 103.188,77.7488 104.5,74.5C 104.547,72.9996 103.881,71.9996 102.5,71.5C 98.8217,75.8661 96.4884,80.8661 95.5,86.5C 95.1667,86.5 94.8333,86.5 94.5,86.5C 95.4372,80.5223 97.2705,74.8556 100,69.5C 100.758,67.2305 100.591,65.0639 99.5,63C 103.667,61.2889 105,58.4555 103.5,54.5C 104.909,52.6951 105.409,50.6951 105,48.5C 103.14,53.3455 99.64,55.5121 94.5,55C 95.748,53.6003 96.748,52.1003 97.5,50.5C 101.172,45.9947 105.839,42.9947 111.5,41.5C 112.239,41.369 112.906,41.5357 113.5,42C 112.131,47.4553 109.631,52.2887 106,56.5C 105.235,58.0657 105.402,59.3991 106.5,60.5C 105.412,62.5825 104.412,64.7492 103.5,67C 104.406,69.4471 105.239,71.9471 106,74.5C 111.488,63.6982 115.988,52.5316 119.5,41C 119.333,40.5 119.167,40 119,39.5C 117.644,40.3802 116.144,40.7135 114.5,40.5C 118.805,38.2538 123.471,36.9205 128.5,36.5 Z"/></g>
<g><path style="opacity:1" fill="#e4754d" d="M 106.5,60.5 C 110.673,54.5173 113.339,47.8507 114.5,40.5C 116.144,40.7135 117.644,40.3802 119,39.5C 119.167,40 119.333,40.5 119.5,41C 115.988,52.5316 111.488,63.6982 106,74.5C 105.239,71.9471 104.406,69.4471 103.5,67C 104.412,64.7492 105.412,62.5825 106.5,60.5 Z"/></g>
<g><path style="opacity:1" fill="#944e38" d="M 142.5,44.5 C 148.023,44.5555 149.856,47.2222 148,52.5C 146.396,53.0677 145.73,54.0677 146,55.5C 150.362,60.5253 154.696,65.5253 159,70.5C 158.564,74.4189 160.23,76.7522 164,77.5C 164.945,77.0946 165.612,76.428 166,75.5C 166.49,76.7932 166.657,78.1266 166.5,79.5C 164.5,79.5 162.5,79.5 160.5,79.5C 154.211,78.6279 147.878,78.2946 141.5,78.5C 141.973,67.1717 142.307,55.8384 142.5,44.5 Z"/></g>
<g><path style="opacity:1" fill="#83573f" d="M 111.5,41.5 C 112.209,40.596 113.209,40.2627 114.5,40.5C 113.339,47.8507 110.673,54.5173 106.5,60.5C 105.402,59.3991 105.235,58.0657 106,56.5C 109.631,52.2887 112.131,47.4553 113.5,42C 112.906,41.5357 112.239,41.369 111.5,41.5 Z"/></g>
<g><path style="opacity:1" fill="#a0523b" d="M 103.5,54.5 C 99.7445,58.9131 96.4112,63.5798 93.5,68.5C 95.0231,65.655 96.0231,62.655 96.5,59.5C 94.2011,60.1379 92.0344,61.1379 90,62.5C 87.921,66.9926 85.5877,71.326 83,75.5C 84.5115,69.9738 87.0115,64.8071 90.5,60C 89.2068,59.51 87.8734,59.3433 86.5,59.5C 85.1266,59.6567 83.7932,59.49 82.5,59C 87.3888,55.9387 92.3888,53.1053 97.5,50.5C 96.748,52.1003 95.748,53.6003 94.5,55C 99.64,55.5121 103.14,53.3455 105,48.5C 105.409,50.6951 104.909,52.6951 103.5,54.5 Z"/></g>
<g><path style="opacity:1" fill="#724536" d="M 133.5,35.5 C 137.97,34.5139 142.637,34.1805 147.5,34.5C 154.051,35.5547 160.384,37.388 166.5,40C 169.167,41.8617 171.5,44.0284 173.5,46.5C 173.414,47.4959 173.748,48.3292 174.5,49C 183.531,54.3589 191.698,60.8589 199,68.5C 200.187,70.0444 200.52,71.7111 200,73.5C 195.493,70.3263 191.66,66.4929 188.5,62C 186.253,60.6912 183.92,60.0245 181.5,60C 188.004,66.1712 194.171,72.6712 200,79.5C 200.994,84.1458 199.827,85.1458 196.5,82.5C 190.891,76.0454 185.391,69.3787 180,62.5C 178.667,61.1667 177.333,59.8333 176,58.5C 175.493,59.9961 175.993,61.1627 177.5,62C 177,62.5 176.5,63 176,63.5C 173.805,59.77 171.138,56.4366 168,53.5C 167.5,53.8333 167,54.1667 166.5,54.5C 169.667,58.8333 172.833,63.1667 176,67.5C 182.948,74.39 189.781,81.39 196.5,88.5C 196.113,89.7199 195.28,90.3865 194,90.5C 188.679,89.2876 183.846,87.1209 179.5,84C 173.013,82.5468 166.679,81.0468 160.5,79.5C 162.5,79.5 164.5,79.5 166.5,79.5C 166.657,78.1266 166.49,76.7932 166,75.5C 165.612,76.428 164.945,77.0946 164,77.5C 160.23,76.7522 158.564,74.4189 159,70.5C 154.696,65.5253 150.362,60.5253 146,55.5C 145.73,54.0677 146.396,53.0677 148,52.5C 149.856,47.2222 148.023,44.5555 142.5,44.5C 142.296,41.4824 141.963,38.4824 141.5,35.5C 138.833,35.5 136.167,35.5 133.5,35.5 Z"/></g>
<g><path style="opacity:1" fill="#e2744e" d="M 133.5,35.5 C 136.167,35.5 138.833,35.5 141.5,35.5C 141.963,38.4824 142.296,41.4824 142.5,44.5C 142.307,55.8384 141.973,67.1717 141.5,78.5C 138.833,78.5 136.167,78.5 133.5,78.5C 133.649,77.448 133.483,76.448 133,75.5C 132.878,77.437 132.045,78.7703 130.5,79.5C 125.482,79.6133 120.482,79.9466 115.5,80.5C 115.5,79.1667 115.5,77.8333 115.5,76.5C 114.868,78.7426 113.534,80.4093 111.5,81.5C 110.167,81.5 108.833,81.5 107.5,81.5C 107.421,78.7294 107.921,76.0627 109,73.5C 114.225,62.5974 118.225,51.264 121,39.5C 122.011,38.6634 123.178,38.33 124.5,38.5C 125.003,43.5 125.336,43.1667 125.5,37.5C 126.791,37.7373 127.791,37.404 128.5,36.5C 130.292,36.634 131.958,36.3007 133.5,35.5 Z"/></g>
<g><path style="opacity:1" fill="#aa5a3f" d="M 115.5,76.5 C 117.142,68.401 119.308,60.401 122,52.5C 122.667,54.1667 122.667,55.8333 122,57.5C 119.968,64.0019 117.801,70.3352 115.5,76.5 Z"/></g>
<g><path style="opacity:1" fill="#ba864c" d="M 223.5,89.5 C 229.609,97.7173 234.109,106.717 237,116.5C 235.333,115.5 233.667,114.5 232,113.5C 228.673,105.687 225.84,97.6872 223.5,89.5 Z"/></g>
<g><path style="opacity:1" fill="#d8c9be" d="M 63.5,107.5 C 62.1667,108.833 60.8333,110.167 59.5,111.5C 57.9731,111.427 56.9731,112.094 56.5,113.5C 54.3428,115.412 52.0094,117.079 49.5,118.5C 49.5,117.833 49.5,117.167 49.5,116.5C 53.6471,112.685 58.3138,109.685 63.5,107.5 Z"/></g>
<g><path style="opacity:1" fill="#654338" d="M 187.5,107.5 C 188.166,104.311 188.833,100.977 189.5,97.5C 190.086,97.7093 190.586,98.0426 191,98.5C 191.793,104.885 191.626,111.218 190.5,117.5C 191.668,119.217 193.335,119.884 195.5,119.5C 195.5,113.167 195.5,106.833 195.5,100.5C 197.143,100.48 198.476,101.147 199.5,102.5C 201.247,125.085 202.914,125.085 204.5,102.5C 206.484,105.379 208.984,107.712 212,109.5C 212.06,117.637 212.894,125.637 214.5,133.5C 207.5,130.331 201.167,126.165 195.5,121C 189.631,119.587 183.964,117.753 178.5,115.5C 180.298,109.579 181.131,103.246 181,96.5C 181.741,97.6405 182.575,97.6405 183.5,96.5C 184.663,102.137 184.83,107.804 184,113.5C 183.167,114.333 182.333,115.167 181.5,116C 183.821,116.837 186.155,117.17 188.5,117C 187.549,113.943 187.216,110.777 187.5,107.5 Z"/></g>
<g><path style="opacity:1" fill="#998e8d" d="M 259.5,107.5 C 261.167,107.5 262.833,107.5 264.5,107.5C 264.758,112.566 265.425,117.566 266.5,122.5C 259.983,125.978 252.983,127.645 245.5,127.5C 245.482,122.077 244.815,116.744 243.5,111.5C 249.17,111.083 254.503,109.749 259.5,107.5 Z"/></g>
<g><path style="opacity:1" fill="#b7aeab" d="M 14.5,108.5 C 19.8248,109.831 25.1581,111.165 30.5,112.5C 30.8333,113.5 31.1667,114.5 31.5,115.5C 30.9181,119.155 30.4181,122.822 30,126.5C 28.4309,127.122 26.7642,127.456 25,127.5C 13.7388,128.08 9.90545,123.08 13.5,112.5C 14.4345,111.432 14.7678,110.099 14.5,108.5 Z"/></g>
<g><path style="opacity:1" fill="#7a4838" d="M 127.5,85.5 C 124.465,91.3959 125.298,96.7292 130,101.5C 130.383,100.944 130.883,100.611 131.5,100.5C 131.119,101.931 130.119,102.764 128.5,103C 127.973,105.191 127.973,107.525 128.5,110C 122.64,112.572 116.64,113.072 110.5,111.5C 110.5,112.5 110.5,113.5 110.5,114.5C 106.851,115.799 103.184,117.132 99.5,118.5C 96.1186,116.857 94.1186,117.857 93.5,121.5C 88.1588,119.302 82.8255,119.635 77.5,122.5C 76.0016,126.419 73.3349,129.253 69.5,131C 69.8333,131.333 70.1667,131.667 70.5,132C 69.3289,135.638 67.9956,135.972 66.5,133C 63.7695,132.272 61.1029,132.438 58.5,133.5C 57.548,134.533 57.548,135.7 58.5,137C 57.6086,139.279 56.6086,141.446 55.5,143.5C 49.7809,143.234 46.7809,145.9 46.5,151.5C 45.325,151.719 44.325,151.386 43.5,150.5C 42.2391,147.248 40.5725,144.248 38.5,141.5C 40.6521,139.933 42.8188,138.266 45,136.5C 46.7092,137.57 48.2092,138.903 49.5,140.5C 50.4742,138.257 50.8076,135.924 50.5,133.5C 52.5,133.5 54.5,133.5 56.5,133.5C 56.5,126.833 56.5,120.167 56.5,113.5C 56.9731,112.094 57.9731,111.427 59.5,111.5C 59.2172,112.289 58.7172,112.956 58,113.5C 57.3333,119.167 57.3333,124.833 58,130.5C 59.6995,131.406 61.5328,131.739 63.5,131.5C 63.4809,129.94 63.1476,128.44 62.5,127C 64.1931,124.78 65.1931,122.28 65.5,119.5C 66.8333,119.5 68.1667,119.5 69.5,119.5C 69.1756,122.694 70.3422,123.694 73,122.5C 72.9074,119.044 73.9074,116.044 76,113.5C 77.1882,114.563 77.6882,115.897 77.5,117.5C 78.5,117.5 79.5,117.5 80.5,117.5C 81.5207,111.87 81.6873,106.204 81,100.5C 80.7216,99.5842 80.2216,98.9175 79.5,98.5C 79.8417,97.6618 80.5084,97.3284 81.5,97.5C 82.2725,101.75 82.7725,106.083 83,110.5C 84.2568,112.746 86.0901,114.079 88.5,114.5C 88.6691,108.477 89.1691,102.477 90,96.5C 91.0675,101.866 92.2342,107.199 93.5,112.5C 94.5,112.5 95.5,112.5 96.5,112.5C 96.5,106.167 96.5,99.8333 96.5,93.5C 97.4767,96.2869 97.81,99.2869 97.5,102.5C 100.167,102.167 102.833,101.833 105.5,101.5C 105.5,97.8333 105.5,94.1667 105.5,90.5C 107.503,88.0181 110.169,87.0181 113.5,87.5C 114.5,87.5 115.5,87.5 116.5,87.5C 113.689,88.475 110.689,89.1417 107.5,89.5C 107.031,93.9104 108.031,97.9104 110.5,101.5C 113.411,102.792 115.244,101.792 116,98.5C 117.318,101.941 119.818,103.275 123.5,102.5C 123.5,97.5 123.5,92.5 123.5,87.5C 121.833,87.5 120.167,87.5 118.5,87.5C 118.5,87.1667 118.5,86.8333 118.5,86.5C 121.455,85.8413 124.455,85.5079 127.5,85.5 Z"/></g>
<g><path style="opacity:1" fill="#de6e51" d="M 116.5,87.5 C 117.167,87.5 117.833,87.5 118.5,87.5C 120.167,87.5 121.833,87.5 123.5,87.5C 123.5,92.5 123.5,97.5 123.5,102.5C 119.818,103.275 117.318,101.941 116,98.5C 115.244,101.792 113.411,102.792 110.5,101.5C 108.031,97.9104 107.031,93.9104 107.5,89.5C 110.689,89.1417 113.689,88.475 116.5,87.5 Z"/></g>
<g><path style="opacity:1" fill="#dd714e" d="M 79.5,98.5 C 80.2216,98.9175 80.7216,99.5842 81,100.5C 81.6873,106.204 81.5207,111.87 80.5,117.5C 79.5,117.5 78.5,117.5 77.5,117.5C 77.6882,115.897 77.1882,114.563 76,113.5C 73.9074,116.044 72.9074,119.044 73,122.5C 70.3422,123.694 69.1756,122.694 69.5,119.5C 68.1667,119.5 66.8333,119.5 65.5,119.5C 65.1931,122.28 64.1931,124.78 62.5,127C 63.1476,128.44 63.4809,129.94 63.5,131.5C 61.5328,131.739 59.6995,131.406 58,130.5C 57.3333,124.833 57.3333,119.167 58,113.5C 58.7172,112.956 59.2172,112.289 59.5,111.5C 60.8333,110.167 62.1667,108.833 63.5,107.5C 65.0269,107.573 66.0269,106.906 66.5,105.5C 70.2388,104.796 73.2388,102.796 75.5,99.5C 76.8333,99.1667 78.1667,98.8333 79.5,98.5 Z"/></g>
<g><path style="opacity:1" fill="#fceec7" d="M 120.5,116.5 C 121.833,116.5 123.167,116.5 124.5,116.5C 126.713,126.26 131.047,134.926 137.5,142.5C 127.478,142.832 117.478,142.499 107.5,141.5C 102.966,133.255 96.2992,128.255 87.5,126.5C 98.1332,121.956 109.133,118.622 120.5,116.5 Z"/></g>
<g><path style="opacity:1" fill="#e47653" d="M 56.5,113.5 C 56.5,120.167 56.5,126.833 56.5,133.5C 54.5,133.5 52.5,133.5 50.5,133.5C 50.8076,135.924 50.4742,138.257 49.5,140.5C 48.2092,138.903 46.7092,137.57 45,136.5C 42.8188,138.266 40.6521,139.933 38.5,141.5C 39.3094,132.375 42.976,124.708 49.5,118.5C 52.0094,117.079 54.3428,115.412 56.5,113.5 Z"/></g>
<g><path style="opacity:0.984" fill="#eae3db" d="M 263.5,97.5 C 266.118,98.9447 268.618,100.611 271,102.5C 274.5,110.449 274.833,118.449 272,126.5C 268.448,129.295 264.615,131.628 260.5,133.5C 263.855,135.242 267.355,136.909 271,138.5C 273.435,143.574 274.935,148.908 275.5,154.5C 274.833,154.833 274.167,155.167 273.5,155.5C 273.466,150.562 272.299,145.896 270,141.5C 268.362,139.266 266.195,137.933 263.5,137.5C 261.167,136.833 258.833,136.167 256.5,135.5C 256.286,133.856 256.62,132.356 257.5,131C 262.532,129.402 267.032,126.902 271,123.5C 271.429,117.401 270.763,111.401 269,105.5C 267.138,102.833 264.972,100.5 262.5,98.5C 263.167,98.5 263.5,98.1667 263.5,97.5 Z"/></g>
<g><path style="opacity:1" fill="#bfaf7a" d="M 139.5,115.5 C 142.64,114.359 145.973,114.192 149.5,115C 159.121,116.851 168.788,118.518 178.5,120C 182.626,121.208 186.626,122.708 190.5,124.5C 183.098,127.076 176.598,131.076 171,136.5C 169.589,138.65 168.755,140.984 168.5,143.5C 158.5,143.5 148.5,143.5 138.5,143.5C 138.5,142.833 138.167,142.5 137.5,142.5C 131.047,134.926 126.713,126.26 124.5,116.5C 123.167,116.5 121.833,116.5 120.5,116.5C 120.5,116.167 120.5,115.833 120.5,115.5C 122.833,115.5 125.167,115.5 127.5,115.5C 129.437,116.931 131.27,118.598 133,120.5C 134.829,124.828 137.162,128.828 140,132.5C 141.044,131.377 141.71,130.044 142,128.5C 142.499,124.179 142.666,119.846 142.5,115.5C 141.5,115.5 140.5,115.5 139.5,115.5 Z"/></g>
<g><path style="opacity:1" fill="#fbf1ca" d="M 127.5,115.5 C 131.5,115.5 135.5,115.5 139.5,115.5C 140.5,115.5 141.5,115.5 142.5,115.5C 142.666,119.846 142.499,124.179 142,128.5C 141.71,130.044 141.044,131.377 140,132.5C 137.162,128.828 134.829,124.828 133,120.5C 131.27,118.598 129.437,116.931 127.5,115.5 Z"/></g>
<g><path style="opacity:1" fill="#bcab84" d="M 87.5,126.5 C 96.2992,128.255 102.966,133.255 107.5,141.5C 117.478,142.499 127.478,142.832 137.5,142.5C 138.167,142.5 138.5,142.833 138.5,143.5C 114.328,143.831 90.3275,143.498 66.5,142.5C 77.1719,142.667 87.8385,142.5 98.5,142C 94.5132,134.849 88.5132,131.016 80.5,130.5C 82.6351,128.929 84.9684,127.596 87.5,126.5 Z"/></g>
<g><path style="opacity:1" fill="#f2eee8" d="M 13.5,97.5 C 14.9953,97.4148 15.9953,98.0815 16.5,99.5C 12.6595,101.33 10.9928,104.33 11.5,108.5C 10.274,114.455 9.77401,120.455 10,126.5C 14.1893,128.84 18.6893,130.173 23.5,130.5C 23.5,132.167 23.5,133.833 23.5,135.5C 18.6367,135.181 13.97,135.514 9.5,136.5C 7.29181,137.894 5.79181,139.894 5,142.5C 2.28808,172.723 3.95475,202.723 10,232.5C 13.1292,233.13 16.2959,233.796 19.5,234.5C 20.5773,236.912 21.744,239.246 23,241.5C 22.4506,235.359 21.6173,229.192 20.5,223C 20.8333,221.833 21.1667,220.667 21.5,219.5C 23.3234,228.107 24.8234,236.773 26,245.5C 26.5,246 27,246.5 27.5,247C 37.0607,248.448 46.7274,248.948 56.5,248.5C 57.3889,255.057 59.0556,261.39 61.5,267.5C 60.2153,265.548 58.5486,263.882 56.5,262.5C 55.699,258.255 54.0323,254.421 51.5,251C 46.5864,251.532 41.5864,252.032 36.5,252.5C 30.4321,252.756 25.2654,250.756 21,246.5C 19.5455,243.088 17.7121,239.921 15.5,237C 12.905,236.774 10.405,236.274 8,235.5C 3.96704,222.832 1.80038,209.832 1.5,196.5C 1.14209,180.107 1.14209,163.773 1.5,147.5C 0.555171,139.039 4.22184,134.039 12.5,132.5C 10.5171,131.018 8.68375,129.351 7,127.5C 5.72499,117.758 7.05833,108.425 11,99.5C 11.7083,98.6195 12.5416,97.9528 13.5,97.5 Z"/></g>
<g><path style="opacity:1" fill="#fdf3d2" d="M 80.5,130.5 C 88.5132,131.016 94.5132,134.849 98.5,142C 87.8385,142.5 77.1719,142.667 66.5,142.5C 66.5,142.167 66.5,141.833 66.5,141.5C 70.6117,137.047 75.2783,133.38 80.5,130.5 Z"/></g>
<g><path style="opacity:1" fill="#4c413b" d="M 175.5,114.5 C 176.209,115.404 177.209,115.737 178.5,115.5C 183.964,117.753 189.631,119.587 195.5,121C 201.167,126.165 207.5,130.331 214.5,133.5C 216.167,135.833 218.167,137.833 220.5,139.5C 221.167,140.833 221.833,142.167 222.5,143.5C 219.615,143.806 216.948,143.473 214.5,142.5C 209.254,135.448 202.421,130.448 194,127.5C 184.683,129.344 177.85,134.344 173.5,142.5C 171.958,143.301 170.292,143.634 168.5,143.5C 168.755,140.984 169.589,138.65 171,136.5C 176.598,131.076 183.098,127.076 190.5,124.5C 186.626,122.708 182.626,121.208 178.5,120C 168.788,118.518 159.121,116.851 149.5,115C 145.973,114.192 142.64,114.359 139.5,115.5C 135.5,115.5 131.5,115.5 127.5,115.5C 125.167,115.5 122.833,115.5 120.5,115.5C 117.813,115.664 115.146,115.497 112.5,115C 123.453,113.423 134.453,112.256 145.5,111.5C 155.562,112.063 165.562,113.063 175.5,114.5 Z"/></g>
<g><path style="opacity:1" fill="#b8a56f" d="M 214.5,142.5 C 200.676,143.681 187.009,143.681 173.5,142.5C 177.85,134.344 184.683,129.344 194,127.5C 202.421,130.448 209.254,135.448 214.5,142.5 Z"/></g>
<g><path style="opacity:1" fill="#61423a" d="M 223.5,102.5 C 225.392,105.276 227.059,108.276 228.5,111.5C 228.291,112.086 227.957,112.586 227.5,113C 238.166,122.493 243.166,134.326 242.5,148.5C 240.67,151.944 239.004,155.611 237.5,159.5C 234.667,160.933 231.667,161.6 228.5,161.5C 226.792,155.308 224.792,149.308 222.5,143.5C 221.833,142.167 221.167,140.833 220.5,139.5C 221.117,139.611 221.617,139.944 222,140.5C 222.475,133.908 223.308,127.408 224.5,121C 224.333,118.5 224.167,116 224,113.5C 223,112.833 222,112.167 221,111.5C 221.44,117.798 221.107,124.131 220,130.5C 219.586,130.957 219.086,131.291 218.5,131.5C 218.167,130 217.833,128.5 217.5,127C 218.925,120.919 219.592,114.752 219.5,108.5C 216.903,108.357 214.569,107.523 212.5,106C 214.544,105.952 216.544,106.452 218.5,107.5C 218.833,106.833 219.167,106.167 219.5,105.5C 224.073,109.685 225.406,108.685 223.5,102.5 Z"/></g>
<g><path style="opacity:1" fill="#f3f0f0" d="M 36.5,128.5 C 34.7676,134.39 34.2676,140.39 35,146.5C 35.9358,150.207 37.7692,153.374 40.5,156C 38.8659,156.494 37.1992,156.66 35.5,156.5C 35.0472,155.542 34.3805,154.708 33.5,154C 34.1667,153.667 34.8333,153.333 35.5,153C 31.4527,149.027 29.4527,144.194 29.5,138.5C 31.3464,138.778 32.6798,138.111 33.5,136.5C 32.3947,135.108 31.0614,133.941 29.5,133C 32.2018,131.988 34.5351,130.488 36.5,128.5 Z"/></g>
<g><path style="opacity:1" fill="#7f6c6a" d="M 66.5,141.5 C 66.5,141.833 66.5,142.167 66.5,142.5C 90.3275,143.498 114.328,143.831 138.5,143.5C 148.5,143.5 158.5,143.5 168.5,143.5C 160.01,144.33 151.343,144.83 142.5,145C 141.833,145.333 141.167,145.667 140.5,146C 144.084,147.073 147.75,147.74 151.5,148C 152.517,149.049 152.684,150.216 152,151.5C 143.434,149.546 134.601,148.88 125.5,149.5C 125.649,150.552 125.483,151.552 125,152.5C 123.422,148.857 121.589,148.691 119.5,152C 114.316,152.174 109.316,152.674 104.5,153.5C 101.615,153.194 98.9479,153.527 96.5,154.5C 85.1471,154.168 73.8138,154.501 62.5,155.5C 60.4029,168.061 62.0696,180.061 67.5,191.5C 65.9699,192.211 64.6366,193.211 63.5,194.5C 57.8778,185.014 55.2111,174.68 55.5,163.5C 53.0177,164.067 50.6843,164.734 48.5,165.5C 35.4338,165.408 35.2672,164.075 48,161.5C 49.635,155.083 52.135,149.083 55.5,143.5C 59.4137,143.889 63.0804,143.222 66.5,141.5 Z"/></g>
<g><path style="opacity:1" fill="#b7b1a7" d="M 23.5,135.5 C 23.3841,138.86 23.0508,142.193 22.5,145.5C 19.9495,162.728 18.2828,180.061 17.5,197.5C 14.5,197.5 11.5,197.5 8.5,197.5C 6.80138,180.541 6.30138,163.541 7,146.5C 7.53342,143.071 8.36675,139.738 9.5,136.5C 13.97,135.514 18.6367,135.181 23.5,135.5 Z"/></g>
<g><path style="opacity:1" fill="#887d7b" d="M 256.5,135.5 C 258.833,136.167 261.167,136.833 263.5,137.5C 263.062,137.435 262.728,137.601 262.5,138C 266.381,140.928 268.881,144.761 270,149.5C 270.5,156.158 270.666,162.825 270.5,169.5C 265.833,169.5 261.167,169.5 256.5,169.5C 256.817,165.298 256.483,161.298 255.5,157.5C 255.5,156.167 255.5,154.833 255.5,153.5C 254.541,147.862 254.374,142.195 255,136.5C 255.383,135.944 255.883,135.611 256.5,135.5 Z"/></g>
<g><path style="opacity:1" fill="#725e60" d="M 173.5,142.5 C 187.009,143.681 200.676,143.681 214.5,142.5C 216.948,143.473 219.615,143.806 222.5,143.5C 224.792,149.308 226.792,155.308 228.5,161.5C 229.301,163.042 229.634,164.708 229.5,166.5C 227.167,166.5 224.833,166.5 222.5,166.5C 222.357,160.239 220.524,154.573 217,149.5C 216.536,150.094 216.369,150.761 216.5,151.5C 197.042,152.889 177.708,153.889 158.5,154.5C 155.909,155.254 154.076,156.921 153,159.5C 152.501,163.821 152.334,168.154 152.5,172.5C 150.771,166.75 149.771,160.75 149.5,154.5C 149.539,153.417 149.873,152.417 150.5,151.5C 142.5,150.167 134.5,150.167 126.5,151.5C 126.863,152.183 127.196,152.85 127.5,153.5C 126.733,154.172 126.066,155.005 125.5,156C 126.684,157.145 126.684,158.312 125.5,159.5C 124.069,157.563 122.402,155.73 120.5,154C 115.177,153.501 109.844,153.334 104.5,153.5C 109.316,152.674 114.316,152.174 119.5,152C 121.589,148.691 123.422,148.857 125,152.5C 125.483,151.552 125.649,150.552 125.5,149.5C 134.601,148.88 143.434,149.546 152,151.5C 152.684,150.216 152.517,149.049 151.5,148C 147.75,147.74 144.084,147.073 140.5,146C 141.167,145.667 141.833,145.333 142.5,145C 151.343,144.83 160.01,144.33 168.5,143.5C 170.292,143.634 171.958,143.301 173.5,142.5 Z"/></g>
<g><path style="opacity:1" fill="#513f39" d="M 149.5,154.5 C 146.396,157.033 142.729,158.033 138.5,157.5C 135.833,157.333 133.167,157.167 130.5,157C 129.29,155.961 128.29,154.794 127.5,153.5C 127.196,152.85 126.863,152.183 126.5,151.5C 134.5,150.167 142.5,150.167 150.5,151.5C 149.873,152.417 149.539,153.417 149.5,154.5 Z"/></g>
<g><path style="opacity:1" fill="#5b4943" d="M 247.5,143.5 C 249.153,143.66 250.486,144.326 251.5,145.5C 250.191,149.351 250.191,153.351 251.5,157.5C 252.474,155.257 252.808,152.924 252.5,150.5C 253.728,151.306 254.728,152.306 255.5,153.5C 255.5,154.833 255.5,156.167 255.5,157.5C 255.5,165.833 255.5,174.167 255.5,182.5C 254.674,186.982 254.174,191.649 254,196.5C 253.667,191.167 253.333,185.833 253,180.5C 251.842,191.147 251.009,191.147 250.5,180.5C 248.833,180.5 247.167,180.5 245.5,180.5C 246.026,188.081 246.026,195.748 245.5,203.5C 247.665,203.116 249.332,203.783 250.5,205.5C 248.985,207.547 248.151,209.881 248,212.5C 247.667,210.833 247.333,209.167 247,207.5C 246.827,211.541 246.327,215.541 245.5,219.5C 243.898,220.55 243.065,219.883 243,217.5C 242.517,218.448 242.351,219.448 242.5,220.5C 239.618,220.608 237.285,221.774 235.5,224C 238.043,224.14 240.377,224.806 242.5,226C 237.77,225.821 233.103,224.988 228.5,223.5C 231.167,222.833 233.833,222.167 236.5,221.5C 233.255,217.698 232.255,213.365 233.5,208.5C 235.339,209.752 237.172,209.752 239,208.5C 239.667,198.167 239.667,187.833 239,177.5C 237.649,175.981 236.149,174.648 234.5,173.5C 233.506,178.456 233.173,183.456 233.5,188.5C 232.069,188.119 231.236,187.119 231,185.5C 230.667,180.167 230.333,174.833 230,169.5C 229.828,176.013 229.328,182.347 228.5,188.5C 228.83,181.8 228.497,175.134 227.5,168.5C 226.264,167.754 224.93,167.421 223.5,167.5C 223.771,172.434 223.104,177.1 221.5,181.5C 221.123,177.847 221.123,174.347 221.5,171C 221.133,168.292 220.466,165.792 219.5,163.5C 218.833,162.5 218.167,161.5 217.5,160.5C 217.938,160.565 218.272,160.399 218.5,160C 215.833,159.333 215.833,158.667 218.5,158C 216.984,156.103 216.317,153.936 216.5,151.5C 216.369,150.761 216.536,150.094 217,149.5C 220.524,154.573 222.357,160.239 222.5,166.5C 224.833,166.5 227.167,166.5 229.5,166.5C 229.634,164.708 229.301,163.042 228.5,161.5C 231.667,161.6 234.667,160.933 237.5,159.5C 239.004,155.611 240.67,151.944 242.5,148.5C 242.369,149.376 242.702,150.043 243.5,150.5C 245.127,148.235 246.461,145.901 247.5,143.5 Z"/></g>
<g><path style="opacity:1" fill="#ded9d8" d="M 241.5,154.5 C 242.5,154.5 243.5,154.5 244.5,154.5C 244.833,157.5 243.5,158.833 240.5,158.5C 240.433,157.041 240.766,155.708 241.5,154.5 Z"/></g>
<g><path style="opacity:1" fill="#c0babd" d="M 251.5,145.5 C 251.216,147.415 251.549,149.081 252.5,150.5C 252.808,152.924 252.474,155.257 251.5,157.5C 250.191,153.351 250.191,149.351 251.5,145.5 Z"/></g>
<g><path style="opacity:1" fill="#5b4236" d="M 96.5,154.5 C 97.0431,154.56 97.3764,154.893 97.5,155.5C 97.1742,158.658 96.1742,161.492 94.5,164C 94.9574,164.414 95.2907,164.914 95.5,165.5C 92.1667,166.167 88.8333,166.833 85.5,167.5C 88.7138,167.384 92.0472,167.718 95.5,168.5C 93.8333,169.167 92.1667,169.833 90.5,170.5C 91.325,171.386 92.325,171.719 93.5,171.5C 93.1667,173.5 92.8333,175.5 92.5,177.5C 90.5,177.5 88.5,177.5 86.5,177.5C 86.6495,176.448 86.4828,175.448 86,174.5C 83.595,175.274 81.095,175.774 78.5,176C 78.8333,176.333 79.1667,176.667 79.5,177C 78.062,177.219 76.7287,177.719 75.5,178.5C 76.9876,180.577 78.9876,181.577 81.5,181.5C 81.7564,183.792 81.4231,185.959 80.5,188C 81.7127,190.487 82.7127,192.987 83.5,195.5C 85.3413,196.23 87.1746,196.897 89,197.5C 89.3333,196.5 89.6667,195.5 90,194.5C 92.1335,196.138 94.6335,196.971 97.5,197C 96.3279,197.419 95.3279,198.085 94.5,199C 96.6792,198.716 98.6792,198.883 100.5,199.5C 92.8251,200.875 85.1584,200.709 77.5,199C 73.6757,196.99 70.3424,194.49 67.5,191.5C 62.0696,180.061 60.4029,168.061 62.5,155.5C 73.8138,154.501 85.1471,154.168 96.5,154.5 Z"/></g>
<g><path style="opacity:1" fill="#776865" d="M 127.5,153.5 C 128.29,154.794 129.29,155.961 130.5,157C 133.167,157.167 135.833,157.333 138.5,157.5C 142.729,158.033 146.396,157.033 149.5,154.5C 149.771,160.75 150.771,166.75 152.5,172.5C 153.042,180.418 156.376,186.918 162.5,192C 167.167,194.667 171.833,197.333 176.5,200C 194.944,204.204 207.111,197.371 213,179.5C 214.787,173.634 215.787,167.634 216,161.5C 216.383,160.944 216.883,160.611 217.5,160.5C 218.167,161.5 218.833,162.5 219.5,163.5C 220.824,194.343 206.157,208.177 175.5,205C 172.692,204.402 170.192,203.235 168,201.5C 167.601,201.728 167.435,202.062 167.5,202.5C 165.142,200.471 162.808,198.471 160.5,196.5C 158.344,194.159 155.844,192.159 153,190.5C 148.393,181.769 146.226,172.435 146.5,162.5C 142.818,162.335 139.152,162.501 135.5,163C 134.376,163.249 133.376,163.749 132.5,164.5C 131.441,172.95 128.941,180.95 125,188.5C 119.415,192.377 113.582,195.877 107.5,199C 105.461,201.374 103.128,203.374 100.5,205C 92.103,205.87 83.7697,205.537 75.5,204C 71.0251,201.35 67.0251,198.183 63.5,194.5C 64.6366,193.211 65.9699,192.211 67.5,191.5C 70.3424,194.49 73.6757,196.99 77.5,199C 85.1584,200.709 92.8251,200.875 100.5,199.5C 107.4,195.44 113.9,190.773 120,185.5C 124.198,177.343 126.031,168.677 125.5,159.5C 126.684,158.312 126.684,157.145 125.5,156C 126.066,155.005 126.733,154.172 127.5,153.5 Z"/></g>
<g><path style="opacity:1" fill="#553d36" d="M 96.5,154.5 C 98.9479,153.527 101.615,153.194 104.5,153.5C 109.844,153.334 115.177,153.501 120.5,154C 122.402,155.73 124.069,157.563 125.5,159.5C 126.031,168.677 124.198,177.343 120,185.5C 113.9,190.773 107.4,195.44 100.5,199.5C 98.6792,198.883 96.6792,198.716 94.5,199C 95.3279,198.085 96.3279,197.419 97.5,197C 94.6335,196.971 92.1335,196.138 90,194.5C 89.6667,195.5 89.3333,196.5 89,197.5C 87.1746,196.897 85.3413,196.23 83.5,195.5C 82.7127,192.987 81.7127,190.487 80.5,188C 81.4231,185.959 81.7564,183.792 81.5,181.5C 78.9876,181.577 76.9876,180.577 75.5,178.5C 76.7287,177.719 78.062,177.219 79.5,177C 79.1667,176.667 78.8333,176.333 78.5,176C 81.095,175.774 83.595,175.274 86,174.5C 86.4828,175.448 86.6495,176.448 86.5,177.5C 88.5,177.5 90.5,177.5 92.5,177.5C 92.8333,175.5 93.1667,173.5 93.5,171.5C 92.325,171.719 91.325,171.386 90.5,170.5C 92.1667,169.833 93.8333,169.167 95.5,168.5C 92.0472,167.718 88.7138,167.384 85.5,167.5C 88.8333,166.833 92.1667,166.167 95.5,165.5C 95.2907,164.914 94.9574,164.414 94.5,164C 96.1742,161.492 97.1742,158.658 97.5,155.5C 97.3764,154.893 97.0431,154.56 96.5,154.5 Z"/></g>
<g><path style="opacity:1" fill="#543d38" d="M 216.5,151.5 C 216.317,153.936 216.984,156.103 218.5,158C 215.833,158.667 215.833,159.333 218.5,160C 218.272,160.399 217.938,160.565 217.5,160.5C 216.883,160.611 216.383,160.944 216,161.5C 215.787,167.634 214.787,173.634 213,179.5C 207.111,197.371 194.944,204.204 176.5,200C 171.833,197.333 167.167,194.667 162.5,192C 156.376,186.918 153.042,180.418 152.5,172.5C 152.334,168.154 152.501,163.821 153,159.5C 154.076,156.921 155.909,155.254 158.5,154.5C 177.708,153.889 197.042,152.889 216.5,151.5 Z"/></g>
<g><path style="opacity:1" fill="#5f4437" d="M 158.5,154.5 C 168.167,154.5 177.833,154.5 187.5,154.5C 187.073,158.824 186.739,163.158 186.5,167.5C 185.5,167.5 184.5,167.5 183.5,167.5C 183.665,164.15 183.498,160.817 183,157.5C 182.779,162.22 182.279,166.887 181.5,171.5C 172.916,173.142 164.25,173.809 155.5,173.5C 155.334,169.154 155.501,164.821 156,160.5C 156.236,158.189 157.069,156.189 158.5,154.5 Z"/></g>
<g><path style="opacity:0.844" fill="#dfd5b9" d="M 1.5,147.5 C 1.14209,163.773 1.14209,180.107 1.5,196.5C 0.833333,190.167 0.166667,183.833 -0.5,177.5C -0.5,173.833 -0.5,170.167 -0.5,166.5C 0.833333,166.167 0.833333,165.833 -0.5,165.5C -0.5,163.833 -0.5,162.167 -0.5,160.5C 0.166667,156.167 0.833333,151.833 1.5,147.5 Z"/></g>
<g><path style="opacity:1" fill="#aeabaa" d="M 275.5,154.5 C 275.5,154.833 275.5,155.167 275.5,155.5C 275.832,172.542 275.165,189.542 273.5,206.5C 272.903,213.227 271.236,219.56 268.5,225.5C 267.833,225.833 267.167,226.167 266.5,226.5C 267.5,222.499 268.5,218.499 269.5,214.5C 271.592,204.614 272.592,194.614 272.5,184.5C 273.494,175.014 273.827,165.348 273.5,155.5C 274.167,155.167 274.833,154.833 275.5,154.5 Z"/></g>
<g><path style="opacity:1" fill="#56453f" d="M 48.5,114.5 C 48.3284,115.492 48.6618,116.158 49.5,116.5C 49.5,117.167 49.5,117.833 49.5,118.5C 42.976,124.708 39.3094,132.375 38.5,141.5C 40.5725,144.248 42.2391,147.248 43.5,150.5C 44.325,151.386 45.325,151.719 46.5,151.5C 46.7809,145.9 49.7809,143.234 55.5,143.5C 52.135,149.083 49.635,155.083 48,161.5C 35.2672,164.075 35.4338,165.408 48.5,165.5C 45.6569,165.995 43.3235,167.495 41.5,170C 42.3805,170.708 43.0472,171.542 43.5,172.5C 40.8697,174.628 38.3697,176.961 36,179.5C 35.1701,185.196 35.3368,190.863 36.5,196.5C 38.7466,197.374 41.0799,197.708 43.5,197.5C 44.2216,197.918 44.7216,198.584 45,199.5C 46.2988,199.034 47.7988,199.034 49.5,199.5C 49.5,198.5 49.5,197.5 49.5,196.5C 52.0084,204.045 54.0084,211.712 55.5,219.5C 56.2142,225.905 57.3809,232.239 59,238.5C 61.8302,241.257 61.9969,244.257 59.5,247.5C 58.209,247.263 57.209,247.596 56.5,248.5C 46.7274,248.948 37.0607,248.448 27.5,247C 27,246.5 26.5,246 26,245.5C 24.8234,236.773 23.3234,228.107 21.5,219.5C 21.1667,220.667 20.8333,221.833 20.5,223C 21.6173,229.192 22.4506,235.359 23,241.5C 21.744,239.246 20.5773,236.912 19.5,234.5C 16.2959,233.796 13.1292,233.13 10,232.5C 3.95475,202.723 2.28808,172.723 5,142.5C 5.79181,139.894 7.29181,137.894 9.5,136.5C 8.36675,139.738 7.53342,143.071 7,146.5C 6.30138,163.541 6.80138,180.541 8.5,197.5C 7.85852,208.792 9.35852,219.792 13,230.5C 14.049,232.107 15.549,232.773 17.5,232.5C 17.5,220.833 17.5,209.167 17.5,197.5C 18.2828,180.061 19.9495,162.728 22.5,145.5C 23.2679,144.737 23.7679,143.737 24,142.5C 24.091,146.253 24.2577,149.92 24.5,153.5C 25.3078,151.577 25.8078,149.577 26,147.5C 26.4983,150.817 26.665,154.15 26.5,157.5C 27.5,157.5 28.5,157.5 29.5,157.5C 29.3367,155.143 29.5034,152.81 30,150.5C 29.8575,154.466 31.6908,156.466 35.5,156.5C 37.1992,156.66 38.8659,156.494 40.5,156C 37.7692,153.374 35.9358,150.207 35,146.5C 34.2676,140.39 34.7676,134.39 36.5,128.5C 37.7942,127.71 38.9609,126.71 40,125.5C 40.6053,123.365 40.1053,123.031 38.5,124.5C 38.7329,122.938 39.3995,121.605 40.5,120.5C 42.8838,118.115 45.5505,116.115 48.5,114.5 Z"/></g>
<g><path style="opacity:1" fill="#b3aea4" d="M 233.5,208.5 C 233.5,201.833 233.5,195.167 233.5,188.5C 233.173,183.456 233.506,178.456 234.5,173.5C 236.149,174.648 237.649,175.981 239,177.5C 239.667,187.833 239.667,198.167 239,208.5C 237.172,209.752 235.339,209.752 233.5,208.5 Z"/></g>
<g><path style="opacity:1" fill="#bfb9ac" d="M 43.5,172.5 C 44.1275,180.912 44.1275,189.245 43.5,197.5C 41.0799,197.708 38.7466,197.374 36.5,196.5C 35.3368,190.863 35.1701,185.196 36,179.5C 38.3697,176.961 40.8697,174.628 43.5,172.5 Z"/></g>
<g><path style="opacity:1" fill="#aeaea4" d="M 21.5,177.5 C 23.4672,177.261 25.3005,177.594 27,178.5C 27.6667,191.5 27.6667,204.5 27,217.5C 22.1227,204.596 20.2894,191.263 21.5,177.5 Z"/></g>
<g><path style="opacity:1" fill="#b8a56e" d="M 228.5,188.5 C 227.84,208.471 224.007,227.804 217,246.5C 213.747,235.324 208.414,225.324 201,216.5C 198.407,214.451 195.907,212.285 193.5,210C 207.755,205.245 217.089,195.745 221.5,181.5C 223.104,177.1 223.771,172.434 223.5,167.5C 224.93,167.421 226.264,167.754 227.5,168.5C 228.497,175.134 228.83,181.8 228.5,188.5 Z"/></g>
<g><path style="opacity:1" fill="#bbaa77" d="M 60.5,197.5 C 62.0583,203.954 64.725,209.954 68.5,215.5C 66.2825,216.057 63.9491,216.057 61.5,215.5C 61.2407,219.068 59.2407,220.401 55.5,219.5C 54.0084,211.712 52.0084,204.045 49.5,196.5C 48.7676,187.185 48.4343,177.852 48.5,168.5C 49.9305,168.579 51.2638,168.246 52.5,167.5C 53.6812,177.951 56.3479,187.951 60.5,197.5 Z"/></g>
<g><path style="opacity:1" fill="#53443f" d="M 160.5,196.5 C 143.956,190.716 127.623,191.216 111.5,198C 106.896,200.768 103.562,204.601 101.5,209.5C 94.9722,209.882 88.6389,211.215 82.5,213.5C 82.0934,212.238 81.76,210.905 81.5,209.5C 77.3003,208.601 73.3003,207.268 69.5,205.5C 66.5,202.833 63.5,200.167 60.5,197.5C 56.3479,187.951 53.6812,177.951 52.5,167.5C 51.2638,168.246 49.9305,168.579 48.5,168.5C 48.4343,177.852 48.7676,187.185 49.5,196.5C 49.5,197.5 49.5,198.5 49.5,199.5C 47.7988,199.034 46.2988,199.034 45,199.5C 44.7216,198.584 44.2216,197.918 43.5,197.5C 44.1275,189.245 44.1275,180.912 43.5,172.5C 43.0472,171.542 42.3805,170.708 41.5,170C 43.3235,167.495 45.6569,165.995 48.5,165.5C 50.6843,164.734 53.0177,164.067 55.5,163.5C 55.2111,174.68 57.8778,185.014 63.5,194.5C 67.0251,198.183 71.0251,201.35 75.5,204C 83.7697,205.537 92.103,205.87 100.5,205C 103.128,203.374 105.461,201.374 107.5,199C 113.582,195.877 119.415,192.377 125,188.5C 128.941,180.95 131.441,172.95 132.5,164.5C 133.376,163.749 134.376,163.249 135.5,163C 139.152,162.501 142.818,162.335 146.5,162.5C 146.226,172.435 148.393,181.769 153,190.5C 155.844,192.159 158.344,194.159 160.5,196.5 Z"/></g>
<g><path style="opacity:1" fill="#c0ae9f" d="M 128.5,188.5 C 131.314,187.835 134.314,187.502 137.5,187.5C 141.285,187.411 144.952,187.911 148.5,189C 141.862,188.789 135.196,188.622 128.5,188.5 Z"/></g>
<g><path style="opacity:1" fill="#baac7c" d="M 137.5,165.5 C 140.418,171.153 143.751,176.653 147.5,182C 141.804,182.83 136.137,182.663 130.5,181.5C 133.221,176.337 135.554,171.004 137.5,165.5 Z"/></g>
<g><path style="opacity:1" fill="#372c2d" d="M 272.5,184.5 C 272.592,194.614 271.592,204.614 269.5,214.5C 268.848,213.551 268.514,212.385 268.5,211C 270.809,193.248 271.975,175.415 272,157.5C 272.5,166.494 272.666,175.494 272.5,184.5 Z"/></g>
<g><path style="opacity:1" fill="#f9ecc9" d="M 160.5,196.5 C 162.808,198.471 165.142,200.471 167.5,202.5C 168.363,204.421 169.029,206.421 169.5,208.5C 169.983,219.888 167.65,230.555 162.5,240.5C 164.249,233.673 165.915,226.839 167.5,220C 166.107,218.829 165.273,217.329 165,215.5C 161.413,217.139 158.247,218.806 155.5,220.5C 154.253,218.994 154.253,217.494 155.5,216C 151.56,217.494 147.894,219.827 144.5,223C 143.216,223.684 142.049,223.517 141,222.5C 140.53,223.577 140.697,224.577 141.5,225.5C 138.033,228.546 134.866,228.546 132,225.5C 130.086,226.676 130.252,227.676 132.5,228.5C 130.65,229.242 129.984,230.242 130.5,231.5C 128.599,229.272 127.599,226.605 127.5,223.5C 126.127,223.657 124.793,223.49 123.5,223C 122.167,222 122.167,221 123.5,220C 122.076,217.782 120.076,216.282 117.5,215.5C 118.689,214.571 120.022,214.238 121.5,214.5C 126.906,216.037 131.906,218.371 136.5,221.5C 139.238,220.272 141.571,218.438 143.5,216C 148.167,214 152.833,212 157.5,210C 158.86,208.062 158.527,206.396 156.5,205C 150.786,204.368 145.119,204.701 139.5,206C 139,206.5 138.5,207 138,207.5C 137.825,211.211 137.325,214.878 136.5,218.5C 135.914,218.291 135.414,217.957 135,217.5C 134.825,213.789 134.325,210.122 133.5,206.5C 127.429,203.497 121.763,203.831 116.5,207.5C 115.322,208.662 114.155,209.662 113,210.5C 110.91,209.209 109.576,209.876 109,212.5C 107.691,210.109 106.691,210.109 106,212.5C 105.583,211.244 104.75,210.577 103.5,210.5C 103.158,209.662 102.492,209.328 101.5,209.5C 103.562,204.601 106.896,200.768 111.5,198C 127.623,191.216 143.956,190.716 160.5,196.5 Z"/></g>
<g><path style="opacity:1" fill="#544740" d="M 275.5,155.5 C 279.24,157.794 282.74,160.46 286,163.5C 286.724,167.427 287.891,171.094 289.5,174.5C 289.5,182.5 289.5,190.5 289.5,198.5C 287.971,208.614 285.471,218.614 282,228.5C 277.747,230.84 273.247,231.173 268.5,229.5C 268.5,228.167 268.5,226.833 268.5,225.5C 271.236,219.56 272.903,213.227 273.5,206.5C 275.165,189.542 275.832,172.542 275.5,155.5 Z"/></g>
<g><path style="opacity:1" fill="#746968" d="M 8.5,197.5 C 11.5,197.5 14.5,197.5 17.5,197.5C 17.5,209.167 17.5,220.833 17.5,232.5C 15.549,232.773 14.049,232.107 13,230.5C 9.35852,219.792 7.85852,208.792 8.5,197.5 Z"/></g>
<g><path style="opacity:1" fill="#655856" d="M 263.5,137.5 C 266.195,137.933 268.362,139.266 270,141.5C 272.299,145.896 273.466,150.562 273.5,155.5C 273.827,165.348 273.494,175.014 272.5,184.5C 272.666,175.494 272.5,166.494 272,157.5C 271.975,175.415 270.809,193.248 268.5,211C 268.514,212.385 268.848,213.551 269.5,214.5C 268.5,218.499 267.5,222.499 266.5,226.5C 264.902,232.195 261.902,237.028 257.5,241C 254.312,242.316 250.978,242.816 247.5,242.5C 249.476,240.989 251.809,240.156 254.5,240C 253.062,239.781 251.729,239.281 250.5,238.5C 252.514,232.291 254.014,225.958 255,219.5C 255.5,207.171 255.667,194.838 255.5,182.5C 255.5,174.167 255.5,165.833 255.5,157.5C 256.483,161.298 256.817,165.298 256.5,169.5C 261.167,169.5 265.833,169.5 270.5,169.5C 270.666,162.825 270.5,156.158 270,149.5C 268.881,144.761 266.381,140.928 262.5,138C 262.728,137.601 263.062,137.435 263.5,137.5 Z"/></g>
<g><path style="opacity:1" fill="#4d433f" d="M 121.5,214.5 C 118.669,213.002 117.002,210.669 116.5,207.5C 121.763,203.831 127.429,203.497 133.5,206.5C 134.325,210.122 134.825,213.789 135,217.5C 135.414,217.957 135.914,218.291 136.5,218.5C 137.325,214.878 137.825,211.211 138,207.5C 138.5,207 139,206.5 139.5,206C 145.119,204.701 150.786,204.368 156.5,205C 158.527,206.396 158.86,208.062 157.5,210C 152.833,212 148.167,214 143.5,216C 141.571,218.438 139.238,220.272 136.5,221.5C 131.906,218.371 126.906,216.037 121.5,214.5 Z"/></g>
<g><path style="opacity:1" fill="#f9ebc9" d="M 116.5,207.5 C 117.002,210.669 118.669,213.002 121.5,214.5C 120.022,214.238 118.689,214.571 117.5,215.5C 120.076,216.282 122.076,217.782 123.5,220C 122.167,221 122.167,222 123.5,223C 124.793,223.49 126.127,223.657 127.5,223.5C 127.599,226.605 128.599,229.272 130.5,231.5C 129.984,230.242 130.65,229.242 132.5,228.5C 130.252,227.676 130.086,226.676 132,225.5C 134.866,228.546 138.033,228.546 141.5,225.5C 142.995,225.415 143.995,226.081 144.5,227.5C 144.418,230.333 144.252,233.333 144,236.5C 143.626,237.416 143.126,238.25 142.5,239C 143.833,239.667 143.833,240.333 142.5,241C 143.167,241.333 143.833,241.667 144.5,242C 142.831,243.669 140.831,244.502 138.5,244.5C 138.251,248.822 136.584,249.822 133.5,247.5C 132.238,249.381 130.571,250.714 128.5,251.5C 125.747,249.066 123.747,246.066 122.5,242.5C 121.52,245.086 121.187,247.753 121.5,250.5C 124.797,250.329 125.131,250.995 122.5,252.5C 121.914,252.291 121.414,251.957 121,251.5C 120.821,248.447 120.321,245.447 119.5,242.5C 116.936,242.371 114.269,242.704 111.5,243.5C 110.749,244.376 110.249,245.376 110,246.5C 109.667,246.167 109.333,245.833 109,245.5C 108.667,246.833 108.333,248.167 108,249.5C 106.878,247.58 106.044,245.58 105.5,243.5C 104.103,242.181 103.437,240.514 103.5,238.5C 106.359,232.829 105.692,227.662 101.5,223C 102.624,222.751 103.624,222.251 104.5,221.5C 103.47,221.446 102.303,221.112 101,220.5C 100.46,218.865 100.96,217.532 102.5,216.5C 101.147,215.476 100.48,214.143 100.5,212.5C 102.179,212.715 103.179,212.048 103.5,210.5C 104.75,210.577 105.583,211.244 106,212.5C 106.691,210.109 107.691,210.109 109,212.5C 109.576,209.876 110.91,209.209 113,210.5C 114.155,209.662 115.322,208.662 116.5,207.5 Z"/></g>
<g><path style="opacity:1" fill="#fbefca" d="M 101.5,209.5 C 102.492,209.328 103.158,209.662 103.5,210.5C 103.179,212.048 102.179,212.715 100.5,212.5C 100.48,214.143 101.147,215.476 102.5,216.5C 100.96,217.532 100.46,218.865 101,220.5C 102.303,221.112 103.47,221.446 104.5,221.5C 103.624,222.251 102.624,222.751 101.5,223C 105.692,227.662 106.359,232.829 103.5,238.5C 103.437,240.514 104.103,242.181 105.5,243.5C 103.559,245.011 103.059,247.011 104,249.5C 105.131,248.396 105.965,248.729 106.5,250.5C 105.28,252.823 106.113,254.156 109,254.5C 110.221,253.728 111.221,252.728 112,251.5C 113.119,252.552 113.619,253.719 113.5,255C 126.076,258.414 138.742,257.747 151.5,253C 153.142,249.52 155.809,247.353 159.5,246.5C 158.094,249.414 156.094,251.914 153.5,254C 148.944,255.566 144.61,257.399 140.5,259.5C 140.167,259.5 139.833,259.5 139.5,259.5C 128.828,259.667 118.161,259.5 107.5,259C 102.8,257.933 98.1338,256.766 93.5,255.5C 93.1667,254.833 92.8333,254.167 92.5,253.5C 94.2266,248.094 95.56,242.594 96.5,237C 96.0893,233.002 94.0893,230.168 90.5,228.5C 87.2598,227.258 83.9264,227.424 80.5,229C 79.8742,229.75 79.3742,230.584 79,231.5C 77.5064,230.253 76.0064,230.253 74.5,231.5C 74.8333,232.167 75.1667,232.833 75.5,233.5C 72.2545,234.74 70.5879,237.073 70.5,240.5C 69.1667,240.5 67.8333,240.5 66.5,240.5C 67.6389,235.389 69.9722,230.889 73.5,227C 72.1667,226.333 72.1667,225.667 73.5,225C 72.9056,224.536 72.2389,224.369 71.5,224.5C 74.8604,220.473 78.5271,216.806 82.5,213.5C 88.6389,211.215 94.9722,209.882 101.5,209.5 Z"/></g>
<g><path style="opacity:1" fill="#bba871" d="M 169.5,208.5 C 187.101,209.39 199.934,217.723 208,233.5C 210.201,239.102 212.201,244.769 214,250.5C 214.721,256.005 213.221,260.838 209.5,265C 209.728,265.399 210.062,265.565 210.5,265.5C 210.5,265.833 210.5,266.167 210.5,266.5C 208.473,266.338 206.473,266.505 204.5,267C 202.623,269.251 201.123,271.751 200,274.5C 199.097,275.701 197.931,276.535 196.5,277C 189.268,279.038 181.934,280.538 174.5,281.5C 174.414,280.504 174.748,279.671 175.5,279C 173.942,278.79 172.609,278.29 171.5,277.5C 175.068,277.241 176.401,275.241 175.5,271.5C 176.461,273.265 176.795,275.265 176.5,277.5C 177.822,277.67 178.989,277.337 180,276.5C 182.106,278.291 184.606,278.958 187.5,278.5C 187.371,276.784 187.038,275.117 186.5,273.5C 189.646,276.107 191.979,275.44 193.5,271.5C 186.141,259.913 183.474,247.246 185.5,233.5C 188.833,234.833 192.167,236.167 195.5,237.5C 194.567,229.73 190.234,226.23 182.5,227C 175.915,231.468 173.748,237.635 176,245.5C 176.67,249.011 177.837,252.344 179.5,255.5C 174.975,257.079 170.309,258.246 165.5,259C 157.173,259.5 148.84,259.666 140.5,259.5C 144.61,257.399 148.944,255.566 153.5,254C 156.094,251.914 158.094,249.414 159.5,246.5C 160.529,244.483 161.529,242.483 162.5,240.5C 167.65,230.555 169.983,219.888 169.5,208.5 Z"/></g>
<g><path style="opacity:1" fill="#f9ebc8" d="M 162.5,240.5 C 161.529,242.483 160.529,244.483 159.5,246.5C 155.809,247.353 153.142,249.52 151.5,253C 138.742,257.747 126.076,258.414 113.5,255C 113.619,253.719 113.119,252.552 112,251.5C 111.221,252.728 110.221,253.728 109,254.5C 106.113,254.156 105.28,252.823 106.5,250.5C 105.965,248.729 105.131,248.396 104,249.5C 103.059,247.011 103.559,245.011 105.5,243.5C 106.044,245.58 106.878,247.58 108,249.5C 108.333,248.167 108.667,246.833 109,245.5C 109.333,245.833 109.667,246.167 110,246.5C 110.249,245.376 110.749,244.376 111.5,243.5C 114.269,242.704 116.936,242.371 119.5,242.5C 120.321,245.447 120.821,248.447 121,251.5C 121.414,251.957 121.914,252.291 122.5,252.5C 125.131,250.995 124.797,250.329 121.5,250.5C 121.187,247.753 121.52,245.086 122.5,242.5C 123.747,246.066 125.747,249.066 128.5,251.5C 130.571,250.714 132.238,249.381 133.5,247.5C 136.584,249.822 138.251,248.822 138.5,244.5C 140.831,244.502 142.831,243.669 144.5,242C 143.833,241.667 143.167,241.333 142.5,241C 143.833,240.333 143.833,239.667 142.5,239C 143.126,238.25 143.626,237.416 144,236.5C 144.252,233.333 144.418,230.333 144.5,227.5C 143.995,226.081 142.995,225.415 141.5,225.5C 140.697,224.577 140.53,223.577 141,222.5C 142.049,223.517 143.216,223.684 144.5,223C 147.894,219.827 151.56,217.494 155.5,216C 154.253,217.494 154.253,218.994 155.5,220.5C 158.247,218.806 161.413,217.139 165,215.5C 165.273,217.329 166.107,218.829 167.5,220C 165.915,226.839 164.249,233.673 162.5,240.5 Z"/></g>
<g><path style="opacity:1" fill="#5f5547" d="M 69.5,205.5 C 73.3003,207.268 77.3003,208.601 81.5,209.5C 81.76,210.905 82.0934,212.238 82.5,213.5C 78.5271,216.806 74.8604,220.473 71.5,224.5C 68.8279,228.687 66.3279,233.02 64,237.5C 63.3457,238.696 62.8457,238.696 62.5,237.5C 64.3722,231.716 66.5389,226.049 69,220.5C 72.2041,217.631 75.0374,214.465 77.5,211C 74.5932,209.391 71.9266,207.558 69.5,205.5 Z"/></g>
<g><path style="opacity:1" fill="#52423c" d="M 219.5,163.5 C 220.466,165.792 221.133,168.292 221.5,171C 221.123,174.347 221.123,177.847 221.5,181.5C 217.089,195.745 207.755,205.245 193.5,210C 195.907,212.285 198.407,214.451 201,216.5C 208.414,225.324 213.747,235.324 217,246.5C 224.007,227.804 227.84,208.471 228.5,188.5C 229.328,182.347 229.828,176.013 230,169.5C 230.333,174.833 230.667,180.167 231,185.5C 231.236,187.119 232.069,188.119 233.5,188.5C 233.5,195.167 233.5,201.833 233.5,208.5C 232.255,213.365 233.255,217.698 236.5,221.5C 233.833,222.167 231.167,222.833 228.5,223.5C 233.103,224.988 237.77,225.821 242.5,226C 240.377,224.806 238.043,224.14 235.5,224C 237.285,221.774 239.618,220.608 242.5,220.5C 242.351,219.448 242.517,218.448 243,217.5C 243.065,219.883 243.898,220.55 245.5,219.5C 246.327,215.541 246.827,211.541 247,207.5C 247.333,209.167 247.667,210.833 248,212.5C 248.151,209.881 248.985,207.547 250.5,205.5C 249.332,203.783 247.665,203.116 245.5,203.5C 246.026,195.748 246.026,188.081 245.5,180.5C 247.167,180.5 248.833,180.5 250.5,180.5C 251.009,191.147 251.842,191.147 253,180.5C 253.333,185.833 253.667,191.167 254,196.5C 254.174,191.649 254.674,186.982 255.5,182.5C 255.667,194.838 255.5,207.171 255,219.5C 254.014,225.958 252.514,232.291 250.5,238.5C 251.729,239.281 253.062,239.781 254.5,240C 251.809,240.156 249.476,240.989 247.5,242.5C 246.728,243.694 245.728,244.694 244.5,245.5C 246.606,237.24 248.939,229.073 251.5,221C 249.591,220.552 248.424,221.385 248,223.5C 246.301,231.963 244.134,240.296 241.5,248.5C 239.604,249.466 237.604,249.799 235.5,249.5C 229.783,249.207 224.116,248.54 218.5,247.5C 218.711,254.898 216.044,260.898 210.5,265.5C 210.062,265.565 209.728,265.399 209.5,265C 213.221,260.838 214.721,256.005 214,250.5C 212.201,244.769 210.201,239.102 208,233.5C 199.934,217.723 187.101,209.39 169.5,208.5C 169.029,206.421 168.363,204.421 167.5,202.5C 167.435,202.062 167.601,201.728 168,201.5C 170.192,203.235 172.692,204.402 175.5,205C 206.157,208.177 220.824,194.343 219.5,163.5 Z"/></g>
<g><path style="opacity:1" fill="#4e4745" d="M 90.5,228.5 C 94.0893,230.168 96.0893,233.002 96.5,237C 95.56,242.594 94.2266,248.094 92.5,253.5C 92.8333,254.167 93.1667,254.833 93.5,255.5C 98.1338,256.766 102.8,257.933 107.5,259C 118.161,259.5 128.828,259.667 139.5,259.5C 135.018,260.326 130.351,260.826 125.5,261C 128.478,261.696 131.478,262.196 134.5,262.5C 134.5,263.167 134.167,263.5 133.5,263.5C 118.877,262.387 104.377,260.387 90,257.5C 87.1323,258.52 84.6323,260.187 82.5,262.5C 81.5,262.167 80.8333,261.5 80.5,260.5C 81.8818,258.451 83.5484,256.785 85.5,255.5C 85.3548,249.023 85.6881,242.356 86.5,235.5C 83.8205,235.673 81.4872,236.673 79.5,238.5C 79.0156,234.082 81.0156,230.916 85.5,229C 87.1341,228.506 88.8008,228.34 90.5,228.5 Z"/></g>
<g><path style="opacity:1" fill="#ebe7e0" d="M 268.5,225.5 C 268.5,226.833 268.5,228.167 268.5,229.5C 265.725,239.109 259.391,244.609 249.5,246C 248.295,247.376 246.962,248.542 245.5,249.5C 245.082,248.778 244.416,248.278 243.5,248C 244.252,247.329 244.586,246.496 244.5,245.5C 245.728,244.694 246.728,243.694 247.5,242.5C 250.978,242.816 254.312,242.316 257.5,241C 261.902,237.028 264.902,232.195 266.5,226.5C 267.167,226.167 267.833,225.833 268.5,225.5 Z"/></g>
<g><path style="opacity:1" fill="#c2c3c9" d="M 244.5,245.5 C 244.586,246.496 244.252,247.329 243.5,248C 244.416,248.278 245.082,248.778 245.5,249.5C 245.167,250.5 244.5,251.167 243.5,251.5C 240.833,250.833 238.167,250.167 235.5,249.5C 237.604,249.799 239.604,249.466 241.5,248.5C 244.134,240.296 246.301,231.963 248,223.5C 248.424,221.385 249.591,220.552 251.5,221C 248.939,229.073 246.606,237.24 244.5,245.5 Z"/></g>
<g><path style="opacity:1" fill="#4a3d33" d="M 186.5,273.5 C 185.998,268.32 184.331,263.653 181.5,259.5C 177.258,260.749 172.925,261.583 168.5,262C 157.172,262.5 145.838,262.667 134.5,262.5C 131.478,262.196 128.478,261.696 125.5,261C 130.351,260.826 135.018,260.326 139.5,259.5C 139.833,259.5 140.167,259.5 140.5,259.5C 148.84,259.666 157.173,259.5 165.5,259C 170.309,258.246 174.975,257.079 179.5,255.5C 177.837,252.344 176.67,249.011 176,245.5C 173.748,237.635 175.915,231.468 182.5,227C 190.234,226.23 194.567,229.73 195.5,237.5C 192.167,236.167 188.833,234.833 185.5,233.5C 183.474,247.246 186.141,259.913 193.5,271.5C 191.979,275.44 189.646,276.107 186.5,273.5 Z"/></g>
<g><path style="opacity:1" fill="#4d403a" d="M 194.5,244.5 C 196.467,244.261 198.301,244.594 200,245.5C 200.497,247.81 200.663,250.143 200.5,252.5C 195.668,252.227 193.668,249.56 194.5,244.5 Z"/></g>
<g><path style="opacity:1" fill="#ece7e1" d="M 235.5,249.5 C 238.167,250.167 240.833,250.833 243.5,251.5C 241.799,252.734 239.799,253.401 237.5,253.5C 232.493,252.158 227.493,251.825 222.5,252.5C 221.362,255.913 220.029,259.246 218.5,262.5C 218.709,263.086 219.043,263.586 219.5,264C 216.68,264.736 214.68,266.402 213.5,269C 212.552,269.483 211.552,269.649 210.5,269.5C 210.5,268.5 210.5,267.5 210.5,266.5C 210.5,266.167 210.5,265.833 210.5,265.5C 216.044,260.898 218.711,254.898 218.5,247.5C 224.116,248.54 229.783,249.207 235.5,249.5 Z"/></g>
<g><path style="opacity:1" fill="#f7eecc" d="M 60.5,197.5 C 63.5,200.167 66.5,202.833 69.5,205.5C 71.9266,207.558 74.5932,209.391 77.5,211C 75.0374,214.465 72.2041,217.631 69,220.5C 66.5389,226.049 64.3722,231.716 62.5,237.5C 62.8457,238.696 63.3457,238.696 64,237.5C 66.3279,233.02 68.8279,228.687 71.5,224.5C 72.2389,224.369 72.9056,224.536 73.5,225C 72.1667,225.667 72.1667,226.333 73.5,227C 69.9722,230.889 67.6389,235.389 66.5,240.5C 67.8333,240.5 69.1667,240.5 70.5,240.5C 70.5879,237.073 72.2545,234.74 75.5,233.5C 75.1667,232.833 74.8333,232.167 74.5,231.5C 76.0064,230.253 77.5064,230.253 79,231.5C 79.3742,230.584 79.8742,229.75 80.5,229C 83.9264,227.424 87.2598,227.258 90.5,228.5C 88.8008,228.34 87.1341,228.506 85.5,229C 81.0156,230.916 79.0156,234.082 79.5,238.5C 81.4872,236.673 83.8205,235.673 86.5,235.5C 85.6881,242.356 85.3548,249.023 85.5,255.5C 83.9239,253.416 82.0905,251.416 80,249.5C 79.6667,249.833 79.3333,250.167 79,250.5C 78.79,248.942 78.29,247.609 77.5,246.5C 76.4324,245.566 75.099,245.232 73.5,245.5C 73.5,247.167 73.5,248.833 73.5,250.5C 73.5,251.5 73.5,252.5 73.5,253.5C 71.6536,253.222 70.3202,253.889 69.5,255.5C 70.8333,257.167 70.8333,258.833 69.5,260.5C 72.9205,264.719 77.2538,267.719 82.5,269.5C 84.061,268.653 85.561,268.986 87,270.5C 88.2975,269.216 89.4642,269.383 90.5,271C 86.7218,273.682 87.2218,275.848 92,277.5C 92.9454,277.095 93.6121,276.428 94,275.5C 95.0674,276.191 96.2341,276.691 97.5,277C 95.6992,277.317 95.3659,277.984 96.5,279C 100.564,280.889 104.897,281.889 109.5,282C 110.056,282.383 110.389,282.883 110.5,283.5C 103.279,283.063 96.279,281.563 89.5,279C 86.8333,277.667 84.8333,275.667 83.5,273C 80.0209,272.134 76.6876,270.967 73.5,269.5C 63.521,265.525 58.8543,258.192 59.5,247.5C 61.9969,244.257 61.8302,241.257 59,238.5C 57.3809,232.239 56.2142,225.905 55.5,219.5C 59.2407,220.401 61.2407,219.068 61.5,215.5C 63.9491,216.057 66.2825,216.057 68.5,215.5C 64.725,209.954 62.0583,203.954 60.5,197.5 Z"/></g>
<g><path style="opacity:1" fill="#898273" d="M 77.5,246.5 C 77.5,248.167 77.5,249.833 77.5,251.5C 76.0413,251.567 74.7079,251.234 73.5,250.5C 73.5,248.833 73.5,247.167 73.5,245.5C 75.099,245.232 76.4324,245.566 77.5,246.5 Z"/></g>
<g><path style="opacity:1" fill="#f9ebca" d="M 77.5,246.5 C 78.29,247.609 78.79,248.942 79,250.5C 79.3333,250.167 79.6667,249.833 80,249.5C 82.0905,251.416 83.9239,253.416 85.5,255.5C 83.5484,256.785 81.8818,258.451 80.5,260.5C 80.8333,261.5 81.5,262.167 82.5,262.5C 84.6323,260.187 87.1323,258.52 90,257.5C 104.377,260.387 118.877,262.387 133.5,263.5C 132.006,270.415 131.006,277.415 130.5,284.5C 123.814,284.473 117.148,284.139 110.5,283.5C 110.389,282.883 110.056,282.383 109.5,282C 104.897,281.889 100.564,280.889 96.5,279C 95.3659,277.984 95.6992,277.317 97.5,277C 96.2341,276.691 95.0674,276.191 94,275.5C 93.6121,276.428 92.9454,277.095 92,277.5C 87.2218,275.848 86.7218,273.682 90.5,271C 89.4642,269.383 88.2975,269.216 87,270.5C 85.561,268.986 84.061,268.653 82.5,269.5C 77.2538,267.719 72.9205,264.719 69.5,260.5C 70.8333,258.833 70.8333,257.167 69.5,255.5C 70.3202,253.889 71.6536,253.222 73.5,253.5C 73.5,252.5 73.5,251.5 73.5,250.5C 74.7079,251.234 76.0413,251.567 77.5,251.5C 77.5,249.833 77.5,248.167 77.5,246.5 Z"/></g>
<g><path style="opacity:1" fill="#443b3f" d="M 59.5,247.5 C 58.8543,258.192 63.521,265.525 73.5,269.5C 73.2343,273.079 71.901,273.413 69.5,270.5C 67.7996,271.61 66.4663,272.943 65.5,274.5C 63.9172,272.337 62.5839,270.004 61.5,267.5C 59.0556,261.39 57.3889,255.057 56.5,248.5C 57.209,247.596 58.209,247.263 59.5,247.5 Z"/></g>
<g><path style="opacity:1" fill="#b7a26a" d="M 186.5,273.5 C 187.038,275.117 187.371,276.784 187.5,278.5C 184.606,278.958 182.106,278.291 180,276.5C 178.989,277.337 177.822,277.67 176.5,277.5C 176.795,275.265 176.461,273.265 175.5,271.5C 174.448,269.744 172.781,269.077 170.5,269.5C 170.833,272.167 171.167,274.833 171.5,277.5C 172.609,278.29 173.942,278.79 175.5,279C 174.748,279.671 174.414,280.504 174.5,281.5C 159.965,284.034 145.299,285.034 130.5,284.5C 131.006,277.415 132.006,270.415 133.5,263.5C 134.167,263.5 134.5,263.167 134.5,262.5C 145.838,262.667 157.172,262.5 168.5,262C 172.925,261.583 177.258,260.749 181.5,259.5C 184.331,263.653 185.998,268.32 186.5,273.5 Z"/></g>
<g><path style="opacity:0.086" fill="#6c522b" d="M 226.5,274.5 C 227.573,275.251 227.74,276.251 227,277.5C 226.517,276.552 226.351,275.552 226.5,274.5 Z"/></g>
<g><path style="opacity:1" fill="#bdb1a0" d="M 86.5,293.5 C 84.4471,293.598 82.7804,292.931 81.5,291.5C 79.8333,289.5 78.1667,287.5 76.5,285.5C 76.4346,285.062 76.6012,284.728 77,284.5C 80.0623,287.732 83.229,290.732 86.5,293.5 Z"/></g>
<g><path style="opacity:1" fill="#524136" d="M 210.5,266.5 C 210.5,267.5 210.5,268.5 210.5,269.5C 209.999,272.155 208.666,274.322 206.5,276C 197.5,283.667 188.5,291.333 179.5,299C 171.231,303.036 162.565,305.536 153.5,306.5C 168.578,303.295 181.245,295.962 191.5,284.5C 177.63,283.957 165.296,288.124 154.5,297C 153.62,298.356 153.286,299.856 153.5,301.5C 150.157,302.224 146.824,303.057 143.5,304C 142.748,304.671 142.414,305.504 142.5,306.5C 138.833,306.5 135.167,306.5 131.5,306.5C 128.859,304.547 125.859,303.047 122.5,302C 112.017,292.755 100.017,286.088 86.5,282C 83.8607,279.517 80.8607,277.684 77.5,276.5C 77.44,275.957 77.1067,275.624 76.5,275.5C 75.6143,276.325 75.281,277.325 75.5,278.5C 73.8908,278.094 72.5575,278.094 71.5,278.5C 72.9431,281.077 74.6098,283.41 76.5,285.5C 78.1667,287.5 79.8333,289.5 81.5,291.5C 79.321,291.16 77.4877,290.16 76,288.5C 72.2519,283.932 68.7519,279.266 65.5,274.5C 66.4663,272.943 67.7996,271.61 69.5,270.5C 71.901,273.413 73.2343,273.079 73.5,269.5C 76.6876,270.967 80.0209,272.134 83.5,273C 84.8333,275.667 86.8333,277.667 89.5,279C 96.279,281.563 103.279,283.063 110.5,283.5C 117.148,284.139 123.814,284.473 130.5,284.5C 145.299,285.034 159.965,284.034 174.5,281.5C 181.934,280.538 189.268,279.038 196.5,277C 197.931,276.535 199.097,275.701 200,274.5C 201.123,271.751 202.623,269.251 204.5,267C 206.473,266.505 208.473,266.338 210.5,266.5 Z"/></g>
<g><path style="opacity:1" fill="#42392b" d="M 147.5,276.5 C 152.394,277.54 152.727,279.54 148.5,282.5C 146.261,280.867 145.928,278.867 147.5,276.5 Z"/></g>
<g><path style="opacity:1" fill="#6b6352" d="M 117.5,272.5 C 122.262,273.092 123.596,275.592 121.5,280C 120.216,280.684 119.049,280.517 118,279.5C 117.503,277.19 117.337,274.857 117.5,272.5 Z"/></g>
<g><path style="opacity:1" fill="#4c4131" d="M 175.5,271.5 C 176.401,275.241 175.068,277.241 171.5,277.5C 171.167,274.833 170.833,272.167 170.5,269.5C 172.781,269.077 174.448,269.744 175.5,271.5 Z"/></g>
<g><path style="opacity:1" fill="#a79667" d="M 153.5,306.5 C 149.833,306.5 146.167,306.5 142.5,306.5C 142.414,305.504 142.748,304.671 143.5,304C 146.824,303.057 150.157,302.224 153.5,301.5C 153.286,299.856 153.62,298.356 154.5,297C 165.296,288.124 177.63,283.957 191.5,284.5C 181.245,295.962 168.578,303.295 153.5,306.5 Z"/></g>
<g><path style="opacity:0.289" fill="#d1cbc0" d="M 59.5,289.5 C 64.3605,292.038 64.3605,293.704 59.5,294.5C 59.5,292.833 59.5,291.167 59.5,289.5 Z"/></g>
<g><path style="opacity:0.031" fill="#634926" d="M 194.5,298.5 C 194.461,297.244 194.961,296.244 196,295.5C 196.585,296.998 196.085,297.998 194.5,298.5 Z"/></g>
<g><path style="opacity:1" fill="#685a49" d="M 77.5,276.5 C 76.4017,277.601 76.235,278.934 77,280.5C 84.9007,289.526 94.4007,296.193 105.5,300.5C 105.53,301.497 105.03,302.164 104,302.5C 99.7197,300.609 95.5531,298.609 91.5,296.5C 89.6316,295.737 87.9649,294.737 86.5,293.5C 83.229,290.732 80.0623,287.732 77,284.5C 76.6012,284.728 76.4346,285.062 76.5,285.5C 74.6098,283.41 72.9431,281.077 71.5,278.5C 72.5575,278.094 73.8908,278.094 75.5,278.5C 75.281,277.325 75.6143,276.325 76.5,275.5C 77.1067,275.624 77.44,275.957 77.5,276.5 Z"/></g>
<g><path style="opacity:1" fill="#f7edcd" d="M 77.5,276.5 C 80.8607,277.684 83.8607,279.517 86.5,282C 100.017,286.088 112.017,292.755 122.5,302C 125.859,303.047 128.859,304.547 131.5,306.5C 128.5,306.5 125.5,306.5 122.5,306.5C 117.517,304.063 112.183,302.396 106.5,301.5C 106.5,300.833 106.167,300.5 105.5,300.5C 94.4007,296.193 84.9007,289.526 77,280.5C 76.235,278.934 76.4017,277.601 77.5,276.5 Z"/></g>
<g><path style="opacity:0.016" fill="#7f403f" d="M 194.5,298.5 C 193.833,299.167 193.833,299.167 194.5,298.5 Z"/></g>
<g><path style="opacity:0.875" fill="#aea192" d="M 91.5,296.5 C 95.5531,298.609 99.7197,300.609 104,302.5C 105.03,302.164 105.53,301.497 105.5,300.5C 106.167,300.5 106.5,300.833 106.5,301.5C 106.782,302.778 107.449,303.778 108.5,304.5C 101.618,304.224 95.9511,301.557 91.5,296.5 Z"/></g>
<g><path style="opacity:0.012" fill="#5e4e46" d="M 193.5,299.5 C 192.998,301.085 191.998,301.585 190.5,301C 191.244,299.961 192.244,299.461 193.5,299.5 Z"/></g>
<g><path style="opacity:0.949" fill="#5c5245" d="M 106.5,301.5 C 112.183,302.396 117.517,304.063 122.5,306.5C 117.7,306.65 113.033,305.984 108.5,304.5C 107.449,303.778 106.782,302.778 106.5,301.5 Z"/></g>
<g><path style="opacity:0.016" fill="#7f403f" d="M 226.5,305.5 C 227.833,306.167 227.833,306.167 226.5,305.5 Z"/></g>
</svg>
